<svg id="Layer_2" data-name="Layer 2" xmlns="http://www.w3.org/2000/svg" viewBox="0 0 475.35 92.5"><defs><style>.cls-1{fill:#dfb980;stroke:#714525;stroke-miterlimit:10;stroke-width:1.93px}.cls-2,.cls-3{fill:#714525;stroke-width:0}.cls-3{fill:#382421}</style></defs><g id="Layer_1-2" data-name="Layer 1"><path class="cls-1" d="M63.58 89.07c0-.1 9.3 6.64-20.25 3.9 0 .03-13.46-3.49-15.04-3.97-1.58-.4-15.04-.62-15.04-.66-2.9-1.51-5.81-3.04-8.71-4.59 0 .05 14.51-3.79 17.68-5.51 3.17-1.63 11.35-12.3 11.35-12.32 1.23-3.04 2.46-6.09 3.69-9.15 0 .03-15.3-9.58-16.36-10.25-1.06-.63-8.71-9.51-10.56-9.76-1.85-.23-7.91-1.06-7.92-1.07 0 0 6.68-4.92 12.96-3.41 6.29 1.53 12.32 1.9 12.32 1.9 0 .02 10.48 2.59 11.27 2.64.78.14 19.39.58 19.39.52 1.74 17.22 3.48 34.45 5.21 51.71z"/><path class="cls-1" d="M52.03 80.36c-4.54-1.51.32 3.95 1.58 4.8 3.12 2.12 6.68 2.73 9.97 3.91 1.27-3.11 1.12-6.33 1.12-9.71 0-5.23.48-10.35.76-15.56.37-7 2.54-13.66 2.91-20.67.2-3.81-.2-7.58-.55-11.4-.23-2.49.05-7.78-1.12-9.92-1.1-2.01-4.55-3.49-6.4-4.65-2.6-1.63-6.1-5.7-9.05-4.63.26 22.6.53 45.21.79 67.82zM411.78-.05c0 .09-9.3-6.98 20.25-4.83 0-.03 13.46 3.45 15.04 3.94 1.58.41 15.04.2 15.04.24 2.9 1.59 5.8 3.21 8.71 4.84 0-.04-14.51 4.74-17.68 6.71-3.17 1.93-11.35 13.94-11.35 13.94-1.23 3.4-2.46 6.79-3.69 10.19 0-.05 15.3 10.47 16.36 11.23 1.06.68 8.71 10.56 10.55 10.83 1.85.25 7.92 1.14 7.92 1.15 0 0-6.68 5.59-12.97 3.9-6.29-1.7-12.32-2.1-12.32-2.1 0-.02-10.48-2.87-11.27-2.93-.78-.14-19.39-.67-19.39-.61-1.74-18.86-3.48-37.68-5.21-56.48z"/><path class="cls-1" d="M423.32 9.23c4.53 1.56-.32-4.33-1.58-5.24-3.13-2.25-6.68-2.84-9.97-4.04-1.28 3.42-1.13 6.94-1.12 10.62 0 5.7-.48 11.31-.76 16.99-.37 7.65-2.54 14.92-2.91 22.54-.2 4.15.2 8.26.56 12.42.23 2.72-.05 8.48 1.12 10.83 1.1 2.2 4.55 3.87 6.4 5.17 2.6 1.82 6.1 6.34 9.05 5.22-.26-24.84-.53-49.67-.79-74.5z"/><g><path class="cls-1" d="M50.86 7.49c2.94.81 6.03 1.97 9.02 2.37 4.52.61 9.51-.59 14.12-.36 3.41.2 16.24-.96 16.56 2.78 2.13-1.06 6.01-1.04 6.96-3.33 9.04 3.28 16.11 3.99 25.7 2.39 4.94-.83 9.74-.77 14.75-.57 3.95 1.14 233.93-7.78 237.8-5.41 4.17-.81 3.43-.36 7.14 1.12 3.67 1.47 5.08-.71 8.77-.79 5.57-.11 12.23.86 17.8 1.67 5.7.82 10.16.78 15.71 1.07.23 6.77-1.23 13.28-.71 20.16.48 6.49 1.54 13.07 2.19 19.4.35 3.47 1.1 7.27 1.18 10.72.05 2.4-.66 4.14-1 6.51-.6 4.11 1.32 6.5 1.99 10.17.61 3.34.03 7.44-.03 10.79-4.69-.68-9.4.54-13.99.92-5.09.43-10.22-.2-15.36-.8-16.63-6.33-259.9-.52-276.53-2.81-6.51-.37-13.1-1.6-19.59-1.48-10.37.19-20.69 1.77-31.09 1.15-7.51-.45-14.51-1.77-21.82-2.75-1.03-6.53.91-13.02.33-19.51-.39-4.32-2.21-7.91-1.58-12.29.56-3.86.85-7.18.9-11 .08-5.91.33-11.28-.24-17.12-.28-2.91-.07-5.96 1.01-13.03z"/><path class="cls-2" d="M424.85 68.13c-.78-.57-1.74-.96-2.57-1.43 1.05-.57 2.92-1.64 4.09-.45.8.82.21 1.62-.15 2.75M89.71 10.78c0 1.34-.69 4.57 0 5.7.95-1.28 2.31-3.22 2.34-4.96M68.48 83.27c.67-1.41.1-3.31 1.64-4.33 1.1 1.18.1 3.13.83 4.37"/></g><g><path class="cls-3" d="M80.54 48.38c-.1-.33-.18-.59-.21-.78-.04-.19-.07-.39-.11-.6 0-.03 0-.06-.01-.07 0 0-.02-.03-.01-.06-.02-.12-.03-.25-.03-.4v-.42c0-.45.03-.9.11-1.37.07-.47.2-.95.37-1.46.2-.52.48-1.04.86-1.56s.75-.99 1.1-1.4c.1-.11.24-.24.4-.38.16-.14.42-.32.77-.54.35-.22.74-.44 1.16-.65.42-.21.9-.39 1.45-.54.55-.15 1.18-.25 1.9-.32.72-.06 1.56-.06 2.51.01.34.08.63.14.86.17.24.03.46.08.66.14.2.06.42.13.64.22.22.09.48.22.77.39.29.17.65.39 1.08.66.43.26.94.61 1.57 1.02-.39.81-.78 1.61-1.17 2.42-.39-.57-.82-1.11-1.29-1.62-.47-.52-.98-.97-1.54-1.37-.56-.4-1.16-.72-1.81-.97a6.49 6.49 0 00-2.11-.42c-.6 0-1.08.05-1.45.13-.36.08-.67.19-.92.32-.25.14-.46.29-.64.46a7.2 7.2 0 01-.58.5c-.09.08-.18.16-.28.24-.1.08-.21.22-.33.42-.16.18-.29.39-.39.62-.1.24-.19.49-.28.76-.05.17-.1.38-.13.62-.04.25-.06.5-.08.76-.02.24-.02.52-.01.85 0 .33.03.62.07.88.06.33.1.62.15.87.05.25.11.48.17.69.09.3.17.56.25.8.08.24.15.43.23.59.12.3.24.57.34.82.1.25.2.42.29.53.17.27.34.51.49.73.15.22.27.4.39.55.23.29.41.51.56.67.14.16.27.29.37.38.19.2.36.35.5.46.15.11.27.21.4.3.47.33.89.6 1.23.79.35.2.65.34.9.44.26.1.48.17.66.21.18.04.36.08.52.1.12.02.34.05.65.07.31.02.66 0 1.05-.1.39-.09.8-.25 1.21-.49.42-.24.8-.61 1.15-1.12.07-.05.16-.15.27-.3.11-.15.21-.31.32-.49.11-.18.21-.34.31-.49.09-.15.17-.25.23-.3l.11-.13v.03c.34-.09.52-.13.53-.12.02 0 .05.06.11.15 0 .02-.05.07-.13.15h.03c-.05.07-.15.24-.3.52s-.36.61-.64 1c-.27.39-.63.79-1.06 1.2-.43.41-.96.78-1.58 1.1-.12.05-.23.1-.33.15-.1.06-.27.11-.52.17-.14.03-.33.05-.56.08-.23.02-.51.05-.82.09h.03c-.14.03-.29.04-.45.03-.16 0-.34-.02-.53-.02-.15 0-.26-.01-.35-.02-.09 0-.2-.02-.34-.04-.07 0-.15-.02-.23-.04-.08-.02-.15-.03-.23-.04-.26-.05-.52-.09-.76-.13-.24-.04-.47-.1-.68-.18-.35-.1-.71-.22-1.06-.34-.35-.12-.66-.26-.9-.41-.78-.42-1.32-.74-1.62-.96-.3-.26-.57-.5-.8-.72-.23-.23-.41-.42-.53-.58-.42-.54-.82-1.11-1.17-1.72-.35-.61-.6-1.14-.74-1.6zM96.72 38l-.03-.03.03.03zm19.63.59l-3.51-.09c-.11 0-.16 0-.15-.02 0 0-.03-.01-.12-.01-.23 0-.39-.01-.48-.03h-1.04c-.1 0-.15.03-.15.06v.18c0 .09 0 .23-.01.44s0 .49-.01.86v5.82c-2.64-.05-5.28-.11-7.91-.18v-4.36-1.44c0-.39 0-.7-.01-.93-.01-.23 0-.4-.01-.51v-.21c0-.07-.23-.11-.69-.12-.17 0-.34 0-.51-.01-.09.02-.25.02-.48.01-.09 0-.11 0-.05.01.05.01.03.01-.08.01-1.17 0-2.34-.01-3.51-.02-.42-.01-.66-.01-.69 0-.07.02-.14.03-.21.05l.21.45h.56c.14.04.18.06.12.07h-.19c-.06 0-.06 0-.01-.01.05 0 .27-.01.66-.02.37.11.74.21 1.12.32.07.02.14.06.21.12.07.06.14.12.21.17-.04-.02-.05.01-.05.09s.02.17.05.27c.02.09.03.18.03.27v.56c.02.29.05.73.11 1.3.05.57.08 1.43.08 2.57-.03 3.34-.05 6.68-.08 10.02-.04.12-.15.22-.34.3-.19.08-.34.12-.45.11-.1.01-.18.02-.21.02h-.16c-.12 0-.24 0-.33-.01-.1 0-.17 0-.23.02h-.23c-.1 0-.19.02-.27.04-.08.02-.15.06-.2.11-.05.05-.07.13-.05.23 1.36.06 2.73.12 4.09.17.3-.02.51-.04.64-.03.12 0 .21 0 .27-.02.2-.17.41-.33.61-.5h-.11c.09-.08.14-.14.16-.16.02-.03.02-.06.03-.09V46.3c2.64.07 5.28.14 7.91.19v8.14s.01.07.03.09c.02.03.07.08.16.17h-.13c.04.09.08.17.13.24.09.16.18.25.29.27.36.04.73.09 1.09.13l4.62.09c.02-.02.04-.03.05-.05-.12-.17-.25-.33-.37-.5-.2 0-.41 0-.61-.01h-.24c-.07 0-.18-.01-.32-.03h-.13c-.09-.02-.2-.04-.35-.07-.14-.03-.23-.04-.27-.04a1.97 1.97 0 01-.58-.22c.07 0 .1-.02.08-.05a.568.568 0 01-.07-.22c0-.08-.02-.2-.03-.36 0-.17-.01-.4-.01-.69v-8.83c0-1.15 0-2.03.01-2.66.01-.62.02-1.08.04-1.38v-.39s0-.03.01-.04c0 0 .01-.04.01-.09.04-.14.06-.26.08-.38.02-.11.07-.18.16-.19.09-.03.18-.07.27-.1.12-.02.23-.05.35-.07l1.22-.12c0-.17-.02-.33-.03-.5zM136.27 46.99c.02.35 0 .67-.03.95-.04.28-.08.56-.13.84-.05.26-.12.52-.19.78-.07.25-.15.5-.21.75-.04.16-.09.32-.16.49-.07.17-.22.41-.45.72h.03c-.21.39-.57.85-1.06 1.39-.5.54-1.02 1.04-1.57 1.5-.18.14-.41.28-.69.43-.29.15-.57.29-.85.43l-.03.03c-.19.07-.38.13-.56.19-.17.06-.43.13-.77.22h.03c-.35.09-.77.16-1.25.22s-1 .09-1.54.08c-.17 0-.35 0-.53-.02-.18 0-.35-.02-.53-.04-.78-.06-1.53-.19-2.23-.4-.71-.21-1.33-.47-1.86-.79-.41-.25-.73-.47-.96-.65-.23-.19-.43-.35-.58-.49-.46-.49-.83-.92-1.12-1.28-.28-.36-.51-.7-.69-1.01-.18-.32-.31-.57-.39-.76-.08-.19-.15-.38-.23-.55-.09-.31-.17-.62-.24-.92-.08-.3-.12-.57-.16-.81-.04-.26-.06-.53-.08-.8-.02-.27-.01-.58.03-.93.03-.26.09-.56.16-.91s.2-.74.37-1.2h-.03c.12-.29.27-.61.44-.96.17-.35.4-.73.68-1.17.39-.57.88-1.12 1.49-1.66.2-.16.42-.32.69-.49.26-.17.57-.35.9-.54.21-.12.43-.23.67-.34.23-.1.53-.22.88-.36.41-.17.98-.29 1.73-.36l.98-.09c.34-.03.68-.03 1.04-.01.37.02.75.05 1.11.09.37.04.72.11 1.04.19.34.1.66.21.98.31.32.1.59.22.82.34.35.19.67.37.93.55.27.17.53.37.8.6.27.23.51.43.73.63.22.19.38.35.46.47.24.3.46.57.62.82.17.25.3.47.39.64h-.03c.39.72.65 1.29.77 1.73.11.37.19.74.25 1.12.06.38.1.72.12 1.04zm-3.48 4.03c.06-.24.09-.51.13-.79.03-.28.04-.62.03-1.02 0-.38-.02-.77-.05-1.14-.03-.38-.1-.72-.19-1.04-.1-.4-.21-.76-.31-1.09-.1-.32-.21-.62-.33-.88-.14-.35-.28-.67-.41-.97-.13-.3-.27-.57-.41-.81-.21-.37-.42-.69-.61-.97-.2-.28-.39-.51-.58-.68-.66-.61-1.18-1.03-1.57-1.26-.62-.33-1.1-.57-1.43-.71-.48-.17-.95-.26-1.41-.26-.27 0-.53.01-.8.04s-.52.08-.77.17c-.24.07-.44.16-.64.26-.19.1-.42.23-.67.39-.18.1-.36.23-.56.39-.19.16-.42.35-.66.6-.13.09-.24.23-.35.42-.11.19-.23.41-.37.65-.07.12-.14.31-.21.57-.07.26-.13.56-.19.89-.03.19-.06.4-.07.63 0 .23-.01.45-.01.68 0 .16 0 .33.01.51 0 .18.02.35.04.51.04.47.1.88.19 1.22.09.34.19.63.29.88.09.26.19.51.3.75.12.24.22.45.31.64h-.11c.1.11.2.23.29.34.23.49.38.78.45.87.14.25.29.48.44.71.15.23.25.38.31.45.19.25.37.46.53.63.16.18.3.32.42.45.21.23.4.43.56.59.16.17.26.27.32.3.2.14.36.27.5.38.14.11.26.19.35.23.64.41 1.36.64 2.18.69.62.04 1.26-.06 1.94-.29.67-.23 1.29-.6 1.86-1.11.12-.09.25-.24.37-.46.12-.22.26-.48.4-.8.09-.19.17-.42.24-.68.07-.26.14-.55.21-.87h.03zm.16-10.47c.07.07.12.11.16.13-.04-.04-.07-.09-.11-.13h-.05zM155.87 46.73c.02.35 0 .67-.03.95-.04.28-.08.57-.13.85-.05.27-.11.53-.19.78-.07.26-.14.51-.21.76-.03.16-.09.32-.16.49-.07.17-.22.41-.45.74h.03c-.21.39-.57.87-1.06 1.42-.49.55-1.02 1.07-1.57 1.53-.18.14-.41.29-.69.45-.29.15-.57.3-.85.45l-.03.03c-.2.07-.38.14-.56.2-.17.06-.44.14-.77.23h.03c-.36.09-.77.17-1.25.24-.48.07-.99.1-1.54.11h-.53c-.18 0-.35-.02-.53-.03-.78-.05-1.52-.17-2.23-.36-.71-.2-1.33-.45-1.86-.76a9.291 9.291 0 01-1.54-1.12c-.46-.49-.83-.91-1.11-1.27-.28-.36-.51-.69-.69-1.01-.18-.31-.3-.57-.39-.76-.08-.19-.15-.38-.23-.55-.09-.32-.17-.62-.24-.92-.07-.3-.12-.57-.16-.81-.04-.26-.06-.53-.08-.8-.02-.27-.01-.58.03-.93.04-.26.09-.57.16-.92.07-.35.19-.75.37-1.21h-.03c.12-.3.27-.62.44-.98.17-.35.39-.75.68-1.19.39-.58.89-1.15 1.49-1.7.2-.16.43-.33.69-.51.27-.18.57-.37.9-.56.21-.13.43-.24.66-.35.23-.11.52-.24.88-.38.41-.18.98-.31 1.73-.39.32-.04.65-.08.98-.11.33-.03.68-.04 1.04-.03.37.01.75.04 1.12.07.37.04.72.1 1.04.18.33.1.66.2.98.3.32.1.59.21.82.33.35.19.66.37.93.54.26.17.53.37.8.59.27.22.51.43.73.62.22.19.38.35.46.47.25.29.46.57.62.82.17.25.3.47.39.64h-.03c.39.72.65 1.29.77 1.73.11.37.19.74.25 1.12.06.38.1.73.12 1.04zm-3.48 4.11c.05-.25.1-.51.13-.79.04-.28.05-.63.03-1.03 0-.39-.02-.77-.05-1.15-.03-.38-.1-.73-.19-1.04-.11-.4-.21-.77-.3-1.09-.1-.32-.21-.62-.33-.88-.14-.35-.28-.67-.41-.97-.13-.3-.27-.57-.41-.81-.21-.37-.42-.69-.61-.97s-.39-.5-.58-.68c-.66-.6-1.18-1.02-1.57-1.24-.62-.32-1.1-.55-1.43-.69a3.91 3.91 0 00-1.41-.24c-.27 0-.53.02-.8.05-.26.03-.52.09-.77.18-.23.07-.44.16-.64.27-.2.11-.42.24-.66.4-.18.11-.36.24-.56.4-.19.16-.41.36-.66.61-.12.09-.24.23-.35.42-.11.19-.23.42-.37.66-.07.12-.14.32-.21.58-.07.26-.13.56-.19.9-.04.19-.06.4-.07.63 0 .23-.01.46-.01.68a9.023 9.023 0 00.05 1.02c.04.47.1.88.19 1.22.09.34.19.63.29.88.09.26.19.51.31.75.11.24.22.45.31.64h-.11c.1.11.2.23.29.34.23.49.38.78.45.87.14.24.29.48.44.71.15.23.26.38.31.45.19.24.37.45.53.63.16.17.3.32.42.44.21.23.4.42.56.59.16.17.27.27.32.3.19.14.36.26.51.38.14.11.25.19.34.22.64.4 1.37.62 2.18.66.62.03 1.26-.08 1.94-.33.67-.25 1.3-.63 1.86-1.15.12-.09.25-.25.37-.47.12-.22.26-.49.4-.81.09-.2.17-.43.24-.69.07-.27.14-.56.21-.88h.03zm.16-10.55c.07.07.12.11.16.13-.03-.04-.07-.09-.11-.13h-.05zM169.98 38.8c-.33 1.08-.66 2.17-.98 3.25-.14-.13-.28-.26-.43-.39-.27-.91-.69-1.6-1.26-2.05-.58-.45-1.16-.77-1.74-.94a.945.945 0 00-.4-.09c-.18-.01-.33-.03-.48-.04-.2-.03-.37-.05-.52-.05-.15 0-.31 0-.49.03-.14.04-.3.09-.46.15-.17.06-.36.12-.57.18h.03c-.29.22-.57.41-.86.55-.29.15-.53.38-.7.68-.04.11-.12.26-.24.44-.12.19-.2.41-.24.66-.09.57-.08 1.05.04 1.44.12.39.29.73.53 1.01.24.28.51.5.81.68.3.18.59.33.88.47-.03-.02-.05-.03-.08-.05.14.08.23.15.27.19.03.04.08.06.11.06h-.03c.24.13.48.25.72.38.09.05.18.09.28.13.1.03.19.07.25.1.19.07.39.15.58.22h-.03c.22.08.44.17.66.25.09.03.19.07.29.1.1.03.21.07.32.1.33.13.63.26.89.37.25.12.44.21.54.28.37.2.66.42.86.65.21.23.4.51.6.82v-.03a5.337 5.337 0 01.38.92c.09.41.14.77.17 1.1.03.33.02.64-.01.93-.04.29-.1.58-.21.86-.11.28-.25.58-.42.9-.35.49-.67.87-.96 1.15-.29.28-.58.5-.88.66-.3.16-.62.28-.97.37-.35.09-.76.18-1.23.28-.21.04-.43.07-.64.09-.21.02-.46.05-.74.1-.25.02-.51.03-.8.02-.29-.01-.54-.02-.77-.01-.48.01-.99-.04-1.53-.14s-1.08-.27-1.59-.5c-.52-.23-1.01-.53-1.47-.9-.46-.37-.85-.82-1.17-1.34l2.04-1.92c.19.71.39 1.42.58 2.13.38.7.92 1.23 1.58 1.6.66.37 1.36.54 2.08.53.72-.02 1.45-.22 2.15-.62.71-.4 1.29-1 1.75-1.81.05-.11.09-.23.12-.36.03-.13.05-.34.07-.63.06-.53-.05-1.03-.31-1.49-.26-.46-.59-.88-1.01-1.26-.41-.38-.87-.7-1.34-.95-.48-.25-.9-.45-1.28-.58-.31-.13-.6-.25-.85-.35-.25-.1-.44-.18-.58-.25-.32-.17-.59-.31-.8-.43-.21-.12-.37-.22-.48-.31h.03c-.25-.17-.46-.31-.64-.42a2.12 2.12 0 01-.32-.22h.05c-.23-.19-.42-.34-.57-.46-.15-.12-.24-.22-.28-.31h.03c-.31-.43-.51-.75-.56-.94h.03c-.19-.44-.3-.73-.32-.87a6.75 6.75 0 010-.9c.03-.13.05-.27.08-.4 0-.04.01-.09.03-.16.02-.07.04-.15.08-.24.08-.21.18-.41.28-.59.1-.18.2-.36.31-.54.04-.05.21-.24.53-.57.44-.38.94-.7 1.51-.97.14-.07.33-.15.56-.21.23-.07.48-.13.74-.19.35-.1.7-.16 1.04-.19a4.684 4.684 0 011.01-.05c.35 0 .72 0 1.09.05.13.02.27.05.4.07.14.01.26.02.36.03.1 0 .29.05.6.13.44.09.78.22 1.02.37s.46.28.65.39c.19.11.42.16.66.15.25 0 .6-.13 1.06-.38l.51.09zM172.07 49.7c-.09-.3-.17-.58-.25-.86-.08-.27-.14-.55-.17-.83-.07-.64-.1-1.28-.08-1.94.02-.3.05-.6.09-.91.05-.3.12-.62.23-.97.07-.27.17-.56.29-.86.12-.31.27-.64.45-1h-.03c.11-.22.24-.45.41-.69.17-.25.4-.53.68-.86.16-.2.36-.41.58-.62.23-.21.47-.42.72-.62.14-.11.29-.23.45-.35.16-.12.37-.26.64-.41.28-.15.6-.31.96-.46.35-.15.75-.31 1.17-.47.28-.1.59-.19.9-.26.32-.07.67-.14 1.04-.19l.5-.06c.18-.02.37-.03.58-.04h.54c.19 0 .38 0 .57.02.46.05.86.12 1.22.21.35.08.68.17.96.24.85.32 1.5.64 1.95.95.45.31.75.57.89.78l-1.99 2.17c-.07-.18-.16-.38-.27-.62-.1-.24-.23-.47-.37-.71a4.62 4.62 0 00-.52-.69c-.2-.22-.43-.41-.68-.56-.28-.17-.56-.31-.84-.44-.28-.12-.58-.21-.92-.27-.34-.06-.71-.09-1.12-.09-.41 0-.88.03-1.43.11-.36.05-.67.17-.96.36-.28.19-.53.41-.76.67-.22.26-.42.53-.58.82-.17.29-.32.57-.44.84-.13.2-.23.41-.31.64-.08.23-.16.45-.25.66-.08.18-.13.41-.2.69-.06.28-.12.56-.17.86-.05.29-.09.56-.11.8-.02.24 0 .41.03.52v.19l5.68-.33c.25 0 .45-.1.6-.26.15-.17.27-.36.36-.57.09-.22.16-.44.21-.68.05-.23.12-.42.21-.57.12 0 .25 0 .37-.01.02 1.65.04 3.3.05 4.95-.1 0-.19 0-.29.01-.25-.57-.5-1.14-.74-1.71h-.27c-.13 0-.27 0-.43-.01h-.48c-.16 0-.29.01-.4.01-1.03.02-1.82.04-2.38.07-.56.03-.99.06-1.29.08a19.902 19.902 0 01-1.22.09c.03.3.05.6.08.9.05.42.11.78.16 1.08.05.29.11.55.16.78.09.35.17.66.23.91.06.26.14.48.23.67a3.792 3.792 0 00.59 1.1h-.03c.06.1.12.19.19.29h-.03c.23.3.5.59.81.88.32.29.64.55.98.78.35.23.71.4 1.09.5.38.1.77.11 1.15.03 1.1-.23 2.07-.71 2.91-1.43.84-.72 1.44-1.72 1.79-2.98.63.65 1.26 1.29 1.89 1.94a8.1 8.1 0 01-1.01 1.24c-.35.35-.77.65-1.25.9s-1.03.45-1.65.62c-.62.16-1.36.29-2.2.39-.28.03-.56.04-.82.05-.27 0-.52 0-.77-.03-.32 0-.62-.03-.89-.08-.28-.05-.55-.11-.84-.19-.25-.08-.51-.17-.78-.27-.28-.1-.52-.19-.76-.27-.07-.02-.14-.05-.21-.07h.03c-.36-.15-.63-.28-.82-.4-.2-.12-.36-.22-.5-.31-.25-.19-.48-.37-.69-.55-.21-.18-.4-.36-.56-.53-.57-.57-.94-1.01-1.12-1.33h.03c-.42-.66-.69-1.14-.8-1.44zM194.52 37.32c-.09.04-.14.04-.16 0-.02-.04.03-.04.16 0zM211.77 36c-.13 0-.39.02-.77.04s-.93.05-1.66.1c-.73.04-1.7.11-2.92.18-.14.04-.25.11-.33.19-.08.08-.14.13-.2.13.02 0 .03 0 .04.01 0 0 .03.01.04.01.14.07.27.1.4.1h.48c.51-.05 1.03-.1 1.54-.16.11.03.27.05.51.07.23.02.4.05.5.1.07.03.22.08.45.15.23.07.39.17.48.31-.35.66-.71 1.31-1.06 1.97h.05c-1.26 2.06-2.51 4.12-3.77 6.17-1.54-2.82-3.08-5.63-4.62-8.44h.08c-.14-.07-.28-.13-.42-.2l-.69.03h-.69c-.28.01-.56.03-.82.04-.52.02-1.05.05-1.57.07-.23.03-.45.04-.68.04h-.78c-.16 0-.32.01-.48.02-.12.13-.23.26-.35.39.07.02.14.05.21.07.19 0 .37-.02.56-.02.28 0 .57.01.85.02h.4c.18 0 .31 0 .4.02.13.01.34.08.64.21h-.03c.16.15.32.31.48.46h-.03c1.43 2.57 2.85 5.15 4.28 7.73.15.25.3.51.45.76 0-.02 0-.02.01 0 0 .02.03.08.07.19v5.63c0 .29-.02.5-.05.65-.03.15-.08.25-.13.33-.12.15-.23.28-.3.39-.08.11-.11.17-.09.17-.03.02-.12.04-.24.06-.13.02-.25.04-.39.06-.13.01-.25.03-.36.04-.1.01-.17.02-.19.02 0 .12-.02.23-.03.35.18.07.36.08.54.05.19-.03.39-.06.62-.07.05 0 .23 0 .53-.02.3-.01.66-.03 1.08-.04.42-.02.86-.04 1.33-.07.47-.03.91-.05 1.33-.08.41-.03.77-.05 1.06-.06.29-.01.47-.03.52-.05.11-.09.17-.17.2-.24.03-.06.03-.11.01-.14-.02-.03-.05-.04-.08-.05-.04 0-.05-.01-.03-.01l-1.83-.6c-.05-.35-.11-.7-.16-1.05v-1.08-4.88h-.11c1.01-1.59 1.87-2.94 2.58-4.03.71-1.09 1.3-2 1.78-2.72a60.321 60.321 0 011.78-2.54c.14-.2.24-.32.29-.37.05-.05.09-.08.11-.1.03-.05.05-.09.08-.14a.961.961 0 00-.28-.11c-.1-.02-.21-.05-.36-.08-.04 0-.12 0-.25.01zm-9.02 10.6l-.03-.03.03.03zm9.99-10.54s0 .07.01.11c.01.04.01.06.01.08l-.11-.08.08-.11zM230.38 43.86c.02.36.01.69-.03.98-.04.29-.08.59-.13.88-.05.28-.12.55-.19.81-.07.27-.14.53-.21.79-.04.17-.09.34-.16.51-.07.18-.22.43-.45.77h.03c-.21.41-.57.91-1.06 1.49-.49.59-1.02 1.13-1.57 1.62-.17.15-.41.31-.69.48-.29.17-.57.33-.85.49l-.03.03c-.2.08-.38.16-.56.23-.18.07-.43.16-.77.27h.03c-.35.11-.77.2-1.25.29-.48.09-.99.14-1.54.16-.18 0-.35.01-.53 0-.18 0-.35 0-.53-.02-.78-.02-1.52-.12-2.23-.29-.71-.18-1.33-.42-1.86-.72-.41-.23-.73-.44-.96-.62-.23-.18-.43-.34-.58-.47-.46-.48-.83-.91-1.12-1.26-.28-.36-.51-.69-.69-1.01a6.98 6.98 0 01-.39-.77c-.08-.19-.16-.38-.23-.56-.09-.32-.17-.63-.24-.94-.07-.3-.12-.58-.16-.83-.03-.27-.06-.54-.08-.82-.02-.28 0-.6.03-.96.04-.27.09-.59.16-.95s.2-.78.37-1.26h-.03c.12-.31.27-.65.44-1.02.17-.37.39-.79.68-1.25.39-.61.89-1.22 1.49-1.8.2-.17.42-.36.69-.55.27-.19.56-.4.9-.61.21-.14.44-.27.66-.39.23-.12.52-.26.88-.42.41-.2.98-.36 1.73-.47.32-.05.64-.1.98-.15.33-.04.68-.07 1.04-.07.37 0 .74.01 1.12.04.37.03.72.08 1.04.15.34.09.66.18.98.27.32.09.59.2.82.31.35.18.67.36.93.52.27.17.53.36.8.58.26.22.51.43.73.61.22.19.38.34.47.47.25.3.45.57.62.83.17.25.29.47.39.65h-.03c.39.72.65 1.31.77 1.76.11.38.19.76.25 1.14.06.39.1.74.12 1.07zm-3.48 4.33c.05-.26.1-.53.13-.82.03-.29.04-.65.03-1.06 0-.4-.02-.79-.05-1.18-.04-.39-.1-.74-.19-1.07-.11-.41-.21-.78-.31-1.11-.1-.33-.21-.63-.33-.89-.14-.36-.28-.68-.41-.99-.13-.3-.27-.57-.41-.82-.21-.37-.42-.69-.61-.97s-.39-.51-.58-.68c-.66-.6-1.18-1.01-1.57-1.22-.62-.31-1.1-.53-1.43-.66-.48-.16-.95-.22-1.41-.2-.27.01-.53.04-.8.08s-.52.11-.77.22c-.23.08-.44.19-.64.3-.2.12-.42.26-.66.44-.18.12-.37.26-.56.43-.19.17-.42.39-.66.66-.13.1-.24.25-.35.45-.1.2-.23.44-.37.7-.07.13-.14.33-.21.61-.07.27-.13.58-.19.93-.04.2-.06.42-.07.65 0 .24-.01.47-.01.7 0 .16 0 .34.01.53 0 .19.02.36.04.53a6.607 6.607 0 00.48 2.14c.09.27.19.52.31.76.11.24.22.46.31.65h-.11c.1.11.19.23.29.34.23.49.38.79.45.87.14.25.29.48.44.71.15.23.25.38.31.45.19.24.37.45.53.63.16.17.3.32.42.44.21.23.4.42.56.58.16.16.26.26.32.3.19.14.36.26.5.37.14.11.25.18.35.22.64.39 1.36.59 2.18.61.62 0 1.27-.13 1.94-.4.67-.28 1.29-.69 1.86-1.24.12-.1.25-.26.37-.49.12-.23.26-.52.4-.85.09-.2.17-.44.24-.72.07-.28.14-.58.21-.91h.03zm.16-10.86c.07.07.12.11.16.13-.04-.04-.07-.09-.11-.13h-.05zM249.48 52.15c-1.21.06-2.43.11-3.64.17-.2 0-.35.02-.48.02-.12 0-.23.02-.32.04-.53.03-.8.03-.82.01-.05-.05-.1-.1-.15-.16-.05-.05-.06-.1-.07-.13v-1.51c-.16.13-.32.25-.48.38-.15.11-.3.21-.45.32h.05c-.07.06-.43.29-1.09.68-.29.16-.72.31-1.3.44a8.45 8.45 0 01-1.44.21c-.53.03-1.02 0-1.46-.07-.27-.04-.53-.08-.81-.11s-.52-.09-.73-.17c-.25-.12-.45-.21-.62-.28-.17-.07-.3-.15-.41-.21-.25-.13-.48-.27-.7-.42a5.22 5.22 0 01-.7-.55c-.14-.1-.28-.23-.43-.38a2.82 2.82 0 01-.34-.41c-.19-.28-.37-.56-.53-.83-.16-.27-.28-.51-.37-.7-.14-.36-.24-.62-.29-.78-.06-.16-.1-.3-.13-.43 0-.15-.01-.3-.03-.46a8.13 8.13 0 01-.05-.49c0-.05 0-.11-.01-.16 0-.05-.01-.11-.01-.16v-.6c0-.22.01-.41.03-.57 0-.36.02-.7.05-1.02.03-.32.09-.64.16-.95 0-.07.01-.15.04-.25.03-.09.08-.26.16-.5s.2-.59.36-1.04c.16-.45.37-1.09.64-1.9.02-.02.12-.19.29-.51.18-.32.37-.67.58-1.05.21-.38.41-.74.58-1.08.18-.34.28-.53.32-.59.07-.11.09-.21.05-.3h.03c-.07-.11-.04-.16.08-.17l-.03-.03h-.08c-.02 0-.05-.01-.08 0-.49 0-.86-.02-1.08-.02-.22 0-.36-.01-.41-.02-.05 0-.06-.01-.03-.01h.11c.04 0 .04.01.01.01s-.15 0-.36.02h-.4c-.2.01-.29-.03-.28-.12 0-.09 0-.17-.04-.24 2.01-.11 4.02-.21 6.03-.32-.11.52-.27 1.06-.5 1.64-.23.58-.49 1.16-.77 1.76-.28.6-.55 1.19-.81 1.77-.26.59-.46 1.15-.62 1.68-.13.37-.22.77-.31 1.2-.08.43-.15.88-.23 1.36-.07.42-.1.81-.09 1.15 0 .35.03.67.07.98.02.36.05.67.09.91.04.24.09.46.15.66 0 .04 0 .04.01.01 0-.03.01-.02.01.01h-.03c.05.18.11.34.17.5.06.15.12.3.17.44.03.08.05.16.08.24h-.03c.14.3.26.53.36.68.1.15.19.3.28.44h-.03c.21.24.4.44.56.6.16.16.29.28.4.36.39.33.76.54 1.12.63.5.14.92.19 1.27.16.42-.02.85-.12 1.27-.31h-.03c.14-.08.27-.16.39-.24.11-.08.27-.19.47-.35.14-.12.3-.26.48-.43.17-.17.42-.45.72-.83.19-.26.39-.6.6-1 .2-.4.3-.94.3-1.62V36.39v-.89c0-.14.02-.19.05-.15-.11-.1-.19-.17-.27-.2h-.05c-.05 0-.09 0-.11-.02-.11-.02-.21-.04-.32-.07-.27 0-.47-.01-.6-.02s-.23-.02-.29-.03h-.12c-.02 0-.05 0-.11-.02-.17 0-.34.02-.5.03-.11-.03-.13-.09-.08-.19.05-.09.06-.14.03-.14.04 0 .04 0 .03-.02-.02 0 .04-.02.19-.02 1.29-.09 2.28-.16 2.96-.21.68-.05 1.18-.1 1.5-.13.32-.04.51-.05.57-.04.06 0 .11.03.15.06.09.09.14.17.16.25.02.08.03.25.03.51V50.05c0 .15 0 .28.03.41 0 .11 0 .19.01.25 0 .05.02.12.04.19h-.11c.12.14.29.27.49.37a3.756 3.756 0 001.24.42c.2.03.37.04.52.03.11 0 .13.04.07.12-.06.09-.07.14-.01.15.02.05.04.11.05.16zm-7.92-17.46s-.02.01-.03.03l.03-.03zM252.66 34.89h.03c-.05-.14-.07-.21-.05-.2.02 0 .04.02.08.04a3.32 3.32 0 00-.19-.18c-.07-.01-.24-.03-.5-.04-.27-.01-.54-.03-.82-.04-.28-.01-.53-.02-.74-.03-.21 0-.29-.03-.24-.07-.05-.08-.11-.16-.16-.24 1.61-.12 3.22-.24 4.83-.37.53-.03.81-.03.82-.02h-.11c.23 0 .34.04.34.09v.19c0 .09 0 .21-.03.36.14-.1.27-.18.4-.24.12-.06.28-.14.45-.24.32-.16.68-.28 1.09-.36.41-.08.82-.13 1.25-.15.83-.04 1.62 0 2.34.13.92.15 1.59.35 2.02.58.39.22.65.38.78.48.14.1.24.2.33.29.06.06.12.12.19.18.2.19.37.39.54.59.17.2.28.36.33.47.29.65.47 1.21.56 1.68.03.27.06.59.07.93.01.35 0 .68-.04 1-.04.28-.1.6-.19.96s-.22.73-.4 1.11c-.11.26-.26.52-.46.77s-.45.51-.73.78c-.09.13-.26.27-.53.42-.27.15-.54.31-.82.47h.03c-.18.1-.33.19-.45.27-.13.08-.34.16-.64.25h.05c-.09.02-.22.05-.37.09-.16.04-.33.07-.52.11-.19.04-.36.07-.52.11-.16.03-.27.05-.34.06 1.58 1.67 3.17 3.34 4.75 5.02.09.11.18.21.27.32.09.03.22.06.39.09.16.03.34.05.52.07.18.02.35.04.5.06.16.02.27.03.35.03.21.34.29.54.23.6-.06.06-.16.08-.31.07-.16 0-.32.01-.48.02h-.77c-.37.02-.74.03-1.12.05-.12 0-.24.02-.35.03l-.29.03c-.13 0-.27.01-.4.02-.14.02-.29.04-.44.05-.15 0-.27.01-.36.02-.42.02-.67 0-.72-.05h.13c-.09 0-.15 0-.17-.02-.03-.02-.06-.04-.09-.08-.05-.05-.13-.15-.23-.28-.1-.13-.25-.3-.44-.49-1.81-2.04-3.63-4.07-5.45-6.1 0 1.69.02 3.39.03 5.08.02.42.04.84.05 1.26-.02.07.07.14.27.21.19.06.4.13.62.19.22.06.42.12.58.18.17.06.22.11.17.17-.09.1-.18.21-.27.31-1.17.05-2.15.1-2.93.15-.79.05-1.43.08-1.91.1-.49.02-.85.04-1.1.05-.25.01-.41.01-.51 0l-.24-.18c.04-.12.09-.24.13-.36l1.89-.75V34.9zm3.24 8.46c0 .24.03.37.09.41.06.03.16.09.31.18.16.1.32.2.48.31.16.1.23.14.21.13.17.08.32.15.42.19.11.04.19.06.25.07.06 0 .11.01.15.02.04 0 .09.02.16.03.18.07.4.09.66.06.27-.02.52-.05.74-.09.23-.04.42-.07.56-.1.14-.02.19-.02.13.02.53-.26.97-.59 1.3-.99.34-.39.62-.89.88-1.49.09-.19.17-.38.25-.59.08-.21.15-.45.23-.73.05-.17.08-.45.09-.83.01-.39 0-.71-.01-.96-.02-.29-.04-.59-.07-.89-.03-.3-.08-.55-.17-.75-.15-.38-.27-.68-.37-.9-.1-.22-.21-.42-.32-.58a2.54 2.54 0 00-.61-.66c-.25-.19-.41-.33-.5-.41-.21-.15-.4-.27-.57-.34-.17-.07-.32-.13-.44-.16-.2-.05-.38-.07-.53-.08-.16 0-.31-.01-.45 0-.2 0-.49.03-.88.1-.12.04-.26.06-.41.05-.15-.01-.33.04-.54.14.02 0-.02.03-.11.09l-.27.18-.48.3c-.04.04-.07.1-.11.2-.04.09-.05.24-.05.44 0 2.54-.02 5.08-.03 7.62v.03zM298.38 31.59c.23.03.36.05.4.07h-.11c.05.07.09.11.13.11-.04.08-.06.18-.08.31-.03.15-.12.43-.25.85s-.37 1.11-.7 2.09c-.65 2.04-1.29 4.07-1.94 6.1-.54 1.7-1.08 3.41-1.62 5.11l-.69 1.95c-.2.55-.33.92-.39 1.12-.06.2-.1.33-.12.41-.06.11-.12.23-.19.34-.18.19-.38.33-.6.4-.22.07-.42.02-.6-.16h.21c-.1 0-.19-.02-.27-.06a.605.605 0 01-.19-.22c-.05-.1-.11-.24-.17-.43-.07-.18-.14-.43-.23-.74l-.21-.69c-.42-1.41-.86-2.82-1.3-4.21-.45-1.39-.87-2.79-1.3-4.2-.12-.33-.2-.59-.24-.8a.27.27 0 00-.03.08c-.13.36-.27.8-.44 1.33-.17.53-.34 1.08-.52 1.66-.2.6-.38 1.2-.56 1.8-.18.6-.34 1.14-.5 1.61-.38 1.17-.76 2.35-1.14 3.52-.09.24-.18.51-.28.79-.1.28-.18.5-.25.65-.04.09-.1.17-.2.22-.1.05-.2.08-.3.08h.24c-.14.15-.31.2-.52.13-.2-.07-.41-.16-.62-.28a.158.158 0 01-.05-.08c-.02-.04-.05-.14-.11-.3-.05-.16-.13-.42-.23-.77-.1-.35-.23-.82-.41-1.43-.73-2.6-1.47-5.19-2.2-7.78-.16-.58-.32-1.14-.46-1.66-.15-.52-.29-.99-.41-1.41-.21-.71-.38-1.27-.49-1.68-.11-.41-.21-.72-.28-.93-.07-.21-.12-.34-.13-.4-.02-.05-.03-.1-.05-.14h.03c-.19-.3-.34-.48-.42-.53h.08c-.3-.17-.58-.28-.82-.32-.44-.05-1.02-.08-1.73-.08-.18 0-.32.02-.44.02s-.19.02-.23.04c.03-.03.05-.06.08-.09.19-.1.36-.17.49-.19.13-.02.3-.04.49-.05.14 0 .28-.01.43-.02h.8c.27-.01.56-.03.89-.04.33-.02.65-.02.97-.02l1.81-.09c.25-.01.42-.02.52-.02.1 0 .17.01.2.05.05.05.1.1.13.15.04.04.07.12.11.22l.12.4c.05.16.11.38.2.66.11.37.23.82.39 1.37.15.55.34 1.22.57 2.03.23.8.5 1.76.81 2.87.32 1.11.68 2.39 1.1 3.86l.21-.54c.89-2.8 1.77-5.6 2.66-8.4.21-.59.43-1.19.64-1.78h-.03c.04-.09.06-.16.08-.18.02-.03.09-.11.21-.25.04-.04.23-.07.58-.08.41-.02.65.04.72.16 0 .02 0 .06.03.11.02.05.06.2.13.43.07.23.18.57.32 1.02.14.45.34 1.07.6 1.85.26.79.58 1.78.97 2.97.39 1.19.86 2.64 1.41 4.35.1-.34.24-.75.4-1.24.16-.49.35-1.09.57-1.79.22-.71.49-1.52.78-2.44.3-.92.65-1.99 1.04-3.19.12-.43.18-.82.19-1.17 0-.34-.03-.64-.08-.9-.05-.33-.13-.53-.24-.6a.671.671 0 00-.27-.13c-.09-.01-.18-.04-.27-.07h.11c-.04 0-.07 0-.09-.01-.03 0-.05-.01-.07-.01-.18-.03-.33-.05-.46-.05h-.39c-.04 0-.07-.01-.11 0-.43 0-.87-.02-1.3-.03l-1.35.06c-.2.03-.39.04-.6.05h-.44c-.36.02-.55 0-.58-.03h-.03c.12-.07.25-.14.37-.21l1.33-.06c.12 0 .26-.02.4-.03.14-.02.28-.03.43-.03.58-.03 1.17-.05 1.75-.08H295.11c.23 0 .46-.02.69-.03.25-.01.45-.02.62-.03.17 0 .33-.02.49-.05.14 0 .27-.01.4-.02.13 0 .24-.02.34-.04.46-.02.71-.02.74 0zm-8.5.58s-.05 0-.11.06c.04-.02.07-.04.11-.06zm8.98-.49s-.06.07-.05.09c.02-.03.04-.06.05-.09zM302.31 49.78h-1.28c-.3.01-.7.03-1.19.07-.49.04-.95.08-1.35.13-.03-.04-.03-.1.01-.18.04-.09.12-.16.23-.22.03-.02.19-.03.45-.04.04 0 .07 0 .11-.02.04 0 .07-.02.11-.02.25-.03.52-.06.82-.1.3-.04.59-.09.89-.16.29-.07.56-.16.8-.28.24-.12.42-.27.54-.47.28-.9.61-1.88.97-2.94.37-1.06.72-2.11 1.08-3.16.36-1.05.7-2.04 1.04-2.99.34-.94.63-1.76.86-2.45.24-.69.41-1.21.52-1.57.11-.36.12-.46.05-.31h-.03c0-.04 0-.05.03-.03.02.02.02 0 .03-.03-.42-.79-.83-1.58-1.25-2.36h.03c-.53-.28-.9-.46-1.12-.55l-.45-.15c-.25-.1-.44-.17-.57-.22-.13-.04-.25-.08-.36-.11-.44-.08-.79-.11-1.04-.1-.25 0-.49.07-.72.17-.06.04-.12.08-.19.12-.2.12-.37.21-.53.27-.16.06-.32.05-.48-.04h.16c-.27-.05-.36-.11-.27-.19.46-.34.87-.53 1.23-.59.36-.06.71-.07 1.05-.03.3 0 .55.03.74.06l.58.09c.14.02.28.05.43.07.09.02.19.03.32.03.12 0 .23.02.32.06.13.02.27.05.4.07l.61.09h-.13c.27.03.51.02.74-.03.25-.12.45-.22.6-.3.15-.08.27-.14.37-.18.09-.04.18-.07.24-.08.06-.01.14-.02.23-.02.59-.15.88-.11.88.14h-.05c2.54 5.44 5.08 10.9 7.62 16.39h-.03c.25.43.41.7.5.82.09.12.15.2.19.23.18.09.35.18.53.27.07.04.17.05.29.05h.03c.05 0 .1-.01.13-.03.55-.01.82 0 .82.04h-.16c.02.02.02.07.01.15 0 .08-.02.14-.04.16-.07.08-.29.12-.64.13-.18.04-.4.05-.66.02h.03c-.04 0-.06 0-.08-.01-.02 0-.04-.01-.08-.01h-.56c-.21 0-.43-.01-.64-.03-.59.01-1.19.03-1.78.05H313.66l-1.17.03c-.09 0-.17 0-.25.02-.08.01-.15.02-.23.02-.14 0-.26.02-.35.04-.3 0-.6.02-.9.02-.25-.03-.34-.07-.27-.13s.2-.15.4-.26c.29 0 .58-.02.88-.02.14 0 .33-.06.56-.16h-.03c.03-.03.05-.06.08-.09.11-.06.18-.16.21-.31.09-.13.14-.26.15-.38 0-.12-.03-.28-.12-.49-.99-2.09-1.98-4.17-2.98-6.25-1.3.04-2.6.08-3.9.13-.51 1.45-.91 2.58-1.2 3.38-.28.8-.5 1.4-.64 1.8-.14.4-.23.65-.27.76-.03.11-.06.2-.08.25h.03c0 .04 0 .06-.03.06-.02 0-.03.02-.03.06-.04.17-.06.28-.07.34 0 .06 0 .13.01.22 0 .11 0 .21-.01.28-.01.07-.02.1-.04.09.2.16.39.28.6.36.2.08.39.13.56.16.17.03.36.05.57.07l.48.21c0 .04-.02.08-.05.11-.04.04-.11.06-.23.08-.12.01-.32 0-.62-.02h-.25c-.08 0-.16 0-.25-.02h.03c-.1-.02-.22-.03-.33-.03h-1.15c-.12 0-.28 0-.49.02zm5.23-13.25c-.51 1.43-1.03 2.86-1.54 4.28l1.69-.06c.58-.02 1.11-.05 1.61-.08-.58-1.38-1.17-2.77-1.75-4.15zM322.15 31.9h.03c-.05-.15-.07-.22-.05-.21.02 0 .04.02.08.04-.06-.06-.12-.13-.19-.19a3.45 3.45 0 00-.51-.06l-.82-.06c-.28-.02-.53-.04-.74-.05-.21-.01-.29-.04-.24-.08-.05-.08-.11-.17-.16-.25 1.61-.08 3.22-.17 4.83-.25.53-.01.81-.01.82 0h-.11c.23.01.34.05.35.1v.2c0 .09 0 .22-.03.37.14-.1.28-.18.4-.24s.27-.14.45-.24c.32-.16.68-.27 1.09-.34.41-.07.82-.1 1.25-.11.83-.02 1.61.05 2.34.2.92.19 1.59.41 2.02.67.39.24.65.41.78.52.14.11.24.21.33.3.06.06.12.13.19.19.19.2.38.41.54.63.17.21.28.38.33.49.29.67.47 1.26.56 1.75.03.28.06.6.07.96 0 .36 0 .7-.04 1.02-.03.28-.1.61-.19.98s-.22.74-.4 1.12c-.1.27-.26.52-.47.77-.2.25-.45.51-.73.78-.09.13-.27.27-.53.42-.27.15-.54.3-.82.45h.03c-.18.1-.33.19-.45.26-.12.08-.34.16-.64.24h.05c-.09.02-.21.05-.37.08s-.33.06-.52.09-.36.06-.52.09c-.16.03-.28.05-.34.05 1.58 1.76 3.17 3.53 4.75 5.3.09.11.18.22.27.34.09.04.22.07.39.11.17.04.34.07.52.09.18.03.35.05.5.08.16.03.27.04.35.04.21.36.29.56.23.62-.06.06-.16.08-.31.06h-.48c-.12 0-.25 0-.37-.01-.12 0-.26-.01-.4 0-.37 0-.74 0-1.12.01-.12 0-.24 0-.34.02-.11.01-.2.02-.29.02h-.4c-.15.02-.28.03-.44.03h-.36c-.42 0-.66-.02-.72-.07h.13c-.09 0-.15 0-.17-.03-.03-.02-.06-.05-.09-.08-.05-.06-.12-.15-.23-.29-.1-.14-.24-.31-.44-.52-1.81-2.15-3.63-4.29-5.45-6.42 0 1.74.02 3.48.03 5.22.02.43.04.86.05 1.3-.02.08.07.15.27.22s.4.14.62.21c.22.07.42.14.58.2.17.06.23.12.17.18-.09.11-.18.21-.27.32-1.17.02-2.15.04-2.94.07-.79.03-1.42.04-1.91.05-.49.01-.85.02-1.1.02-.25 0-.42 0-.5-.02-.08-.06-.16-.13-.24-.19.04-.12.09-.25.13-.37l1.89-.72V31.87zm3.24 8.77c0 .24.03.39.09.42.06.04.16.1.31.19l.48.33c.16.11.23.15.21.14.18.09.32.16.42.2.11.04.19.07.25.08.06 0 .11.02.15.02.03 0 .09.02.16.04.18.07.4.1.66.09.27-.01.51-.04.74-.07.23-.03.42-.06.56-.08.14-.02.19-.01.13.03.53-.25.97-.58 1.3-.97.34-.39.63-.89.88-1.5.09-.19.17-.39.25-.6.08-.21.16-.45.23-.74.06-.17.08-.45.09-.85 0-.4 0-.73-.01-.99-.02-.3-.04-.61-.07-.92-.02-.31-.08-.57-.17-.77-.14-.39-.26-.71-.37-.94-.11-.23-.21-.43-.32-.6-.16-.26-.36-.49-.61-.69-.25-.2-.41-.35-.5-.44a2.852 2.852 0 00-1.01-.54c-.2-.05-.37-.09-.53-.1-.16-.01-.31-.02-.45-.02-.2-.01-.48.01-.88.08-.12.04-.26.05-.41.04-.15-.01-.33.03-.54.13.02 0-.01.03-.11.09l-.27.18c-.16.1-.32.2-.48.29-.04.04-.07.11-.11.2-.03.1-.05.25-.05.45 0 2.6-.02 5.21-.03 7.81v.03zM340.64 31.51h.03c-.05-.15-.07-.22-.05-.21.02 0 .04.02.08.04-.06-.07-.12-.13-.19-.2-.07-.02-.24-.04-.5-.06-.26-.02-.54-.05-.82-.07-.28-.02-.53-.04-.74-.06-.21-.02-.29-.04-.24-.08-.05-.08-.11-.17-.16-.25l4.83-.18c.53 0 .81 0 .82.02h-.11c.23.02.35.05.34.11v.2c0 .09 0 .22-.03.37.15-.1.27-.17.4-.23s.27-.13.45-.23c.32-.15.68-.26 1.09-.32.41-.06.82-.09 1.25-.1.83 0 1.61.07 2.34.24.92.2 1.59.44 2.02.7.39.25.65.42.78.54.13.11.24.22.33.31.06.07.12.13.18.2.19.21.38.42.54.64.17.22.28.38.33.5.28.68.47 1.27.56 1.77a9 9 0 01.07.97c0 .36 0 .7-.04 1.03-.03.28-.1.61-.19.98s-.22.75-.4 1.13c-.11.27-.26.52-.46.77s-.45.5-.73.77c-.09.13-.26.27-.53.41-.27.14-.54.29-.82.44h.03c-.18.1-.33.18-.45.26-.12.08-.34.15-.64.23h.05c-.09.02-.21.04-.37.07-.16.03-.33.06-.52.09s-.36.06-.52.09c-.16.03-.27.04-.35.04 1.58 1.8 3.17 3.6 4.75 5.41.09.11.18.23.27.34.09.04.21.08.38.12.17.04.34.07.52.1s.35.06.51.09c.16.03.27.04.34.04.21.36.29.57.23.63-.06.06-.16.08-.3.06h-.48c-.12 0-.25 0-.37-.02-.12 0-.26-.02-.4-.02h-1.12c-.12 0-.24 0-.35.01-.1 0-.2.01-.29.01h-.4c-.14.02-.29.03-.44.03h-.36c-.42 0-.66-.03-.72-.09h.13c-.09 0-.15 0-.17-.03a.382.382 0 01-.09-.09c-.05-.06-.13-.16-.23-.3-.1-.14-.24-.32-.44-.53-1.82-2.19-3.63-4.37-5.44-6.54 0 1.75.02 3.5.03 5.25.02.44.04.87.05 1.31-.02.08.07.15.27.23.19.07.4.15.62.22.22.07.42.14.58.21.16.07.22.13.17.18-.09.1-.18.21-.27.31-1.17 0-2.15.01-2.93.03-.79.01-1.43.02-1.91.03h-1.1c-.25 0-.42 0-.5-.02-.08-.07-.16-.13-.24-.2.04-.12.09-.25.13-.37.63-.23 1.26-.46 1.89-.7V31.52zm3.24 8.87c0 .25.03.39.09.43.06.04.16.1.31.2.16.11.32.22.48.34.16.11.23.16.21.14.18.09.32.16.43.21.11.05.19.07.25.08.06 0 .11.02.15.03.04 0 .09.02.16.04.18.07.4.11.66.1.26-.01.51-.03.74-.06.23-.03.42-.05.56-.07.14-.02.19 0 .13.03.53-.25.97-.57 1.3-.96.34-.39.63-.89.88-1.5.08-.19.18-.39.25-.6.08-.21.16-.46.23-.74.05-.17.08-.46.09-.85.01-.4 0-.73-.01-1-.02-.3-.04-.61-.07-.92-.03-.31-.08-.57-.17-.78-.14-.4-.26-.71-.37-.95-.1-.24-.21-.44-.32-.61-.16-.26-.36-.5-.61-.71-.25-.21-.42-.36-.5-.45a2.954 2.954 0 00-1.01-.56c-.19-.06-.37-.09-.53-.11-.16-.02-.31-.03-.45-.02-.2-.02-.48 0-.88.06-.12.04-.26.05-.41.03-.15-.02-.33.02-.54.12.02 0-.02.03-.11.09s-.18.12-.27.17c-.16.1-.32.19-.48.29-.03.04-.07.11-.11.2-.04.1-.05.25-.05.45 0 2.62-.02 5.24-.03 7.86v.03zM358.36 47.24v-.27c0-.12 0-.3.01-.53.01-.23.01-.53.01-.91V31.97c-.04-.29-.15-.5-.35-.66-.19-.15-.41-.27-.66-.34-.25-.08-.5-.12-.76-.13-.26 0-.47-.01-.65-.01-.32-.04-.53-.06-.63-.07-.1 0-.16 0-.17.01.03-.04.12-.12.24-.24s.25-.19.37-.19h.11c.03 0 .07 0 .11.01.03.01.1.01.19.01h.45c.19 0 .42 0 .66-.03h.74c.14 0 .29 0 .44-.01.15 0 .3-.01.44-.01h-.03c.41 0 .72 0 .94-.01.21 0 .38-.01.48-.01h.27c.41-.07.66-.06.75.03.02.02.04.06.05.13.02.07.04.2.05.4.02.2.03.5.04.89.01.39.02.91.03 1.57 0 .66.02 1.48.03 2.47 0 .99.02 2.18.01 3.57v9.11l1.51.33c.08.12.16.25.24.37H361.87c-.1.02-.34.03-.71.04-.36 0-.78.01-1.24.02-.47 0-.93 0-1.4-.01-.47-.01-.87-.03-1.2-.07-.33-.03-.54-.08-.63-.13-.09-.06.03-.13.35-.23.21-.04.43-.07.64-.11.02.02.03.03.05.03h.13c.06-.07.12-.13.19-.2.02-.02.04-.05.07-.1.03-.05.09-.17.17-.38.03-.11.06-.31.05-.6v-.17zM383.38 39.99c.02.38 0 .73-.03 1.04-.04.31-.08.61-.13.92-.05.29-.11.57-.19.84-.07.28-.14.55-.21.81-.04.17-.09.35-.16.53-.07.18-.22.44-.45.78h.03c-.21.42-.56.91-1.06 1.49s-1.02 1.11-1.57 1.59c-.18.15-.41.3-.69.45-.28.16-.57.31-.85.45l-.03.03c-.19.07-.38.14-.56.2-.17.06-.44.14-.77.22h.03c-.36.09-.77.16-1.25.21-.48.06-.99.08-1.54.06-.17 0-.35-.01-.53-.03-.18-.01-.36-.03-.53-.05-.78-.07-1.52-.23-2.23-.46s-1.33-.53-1.86-.88c-.41-.27-.72-.51-.96-.72-.23-.2-.43-.38-.58-.54-.46-.54-.83-1.01-1.12-1.4a8.48 8.48 0 01-.69-1.11 7.83 7.83 0 01-.39-.83c-.08-.21-.15-.41-.23-.6-.09-.34-.17-.68-.24-1-.07-.32-.12-.62-.16-.89-.04-.29-.06-.58-.08-.87s-.01-.63.03-1.02c.04-.29.09-.62.16-1s.19-.82.37-1.31h-.03c.12-.32.27-.67.44-1.05.17-.38.4-.81.68-1.28.39-.63.89-1.23 1.49-1.82.2-.17.43-.35.69-.54.27-.19.57-.38.9-.59.21-.13.43-.25.67-.36.23-.11.52-.24.88-.39.41-.19.98-.31 1.73-.38.32-.03.64-.06.98-.09.34-.02.68-.02 1.04 0 .37.03.74.07 1.11.12.37.05.72.13 1.04.24.34.12.66.24.98.36.32.12.59.25.82.39.36.22.66.43.93.62.26.2.54.43.8.68.26.26.51.49.73.71.22.22.38.39.46.53.25.33.46.64.62.92.16.28.3.52.39.72h-.03c.39.8.65 1.44.77 1.92.1.41.19.82.25 1.23.06.41.1.8.12 1.14zm-3.48 4.3c.06-.27.1-.55.13-.86.04-.31.04-.68.03-1.12 0-.42-.02-.84-.05-1.25-.04-.41-.1-.79-.19-1.14-.11-.44-.21-.84-.31-1.2s-.21-.68-.33-.97c-.14-.39-.28-.74-.41-1.07-.13-.33-.27-.63-.41-.9-.21-.41-.42-.77-.61-1.08-.2-.31-.39-.56-.58-.76-.66-.68-1.18-1.15-1.57-1.41-.62-.38-1.1-.64-1.43-.8-.48-.2-.95-.3-1.41-.31-.27 0-.53 0-.8.03-.26.02-.53.08-.77.18-.23.07-.44.17-.64.28-.19.11-.41.25-.66.42-.18.11-.36.25-.56.42-.2.17-.42.39-.66.65-.12.09-.24.25-.35.45-.11.21-.23.45-.37.71-.07.13-.14.34-.21.63-.07.29-.13.61-.19.97-.03.21-.06.44-.07.69-.01.25-.01.5-.01.74a11.034 11.034 0 00.05 1.12c.04.52.1.96.19 1.33.09.37.19.69.29.96.09.29.19.56.3.82.12.26.22.49.31.71h-.11c.1.13.2.25.29.38.23.54.38.86.45.95.14.27.28.53.44.78.15.25.25.42.31.49.19.27.37.5.53.7.16.19.3.36.42.5.21.25.4.47.56.66.16.19.27.3.32.34.2.16.36.3.5.43s.26.21.35.25c.64.45 1.36.72 2.18.8.62.05 1.27-.04 1.94-.28.67-.24 1.29-.63 1.86-1.17.12-.09.25-.26.37-.49.12-.24.26-.52.4-.87.08-.21.17-.46.24-.74.07-.29.14-.6.21-.94h.03zm.16-11.47c.07.08.12.13.16.15-.04-.05-.07-.1-.11-.15h-.05zM386.43 31.84h.03c-.05-.16-.07-.23-.05-.22.02.01.05.03.08.05-.06-.07-.12-.14-.19-.21-.07-.02-.24-.05-.5-.09-.27-.04-.54-.07-.82-.11-.28-.04-.53-.07-.74-.09-.21-.02-.29-.06-.24-.09-.05-.09-.11-.18-.16-.26 1.61 0 3.22.02 4.83.03.53.02.81.04.82.06h-.11c.23.03.35.07.34.13v.2c0 .1 0 .22-.03.37.14-.09.27-.16.4-.22.13-.05.27-.12.45-.21.32-.14.69-.24 1.09-.28.41-.04.82-.06 1.25-.04.83.03 1.61.15 2.34.35.92.25 1.59.52 2.02.81.39.27.65.46.78.59.14.12.24.23.33.33.06.07.12.14.19.21.2.22.38.45.54.68.17.23.28.4.33.52.28.71.47 1.32.56 1.82.04.29.06.62.07.99 0 .37 0 .71-.04 1.04-.03.29-.1.62-.19.99s-.22.75-.4 1.12c-.11.26-.26.52-.46.76s-.45.49-.73.75c-.09.13-.26.26-.53.39s-.54.27-.82.41h.03c-.17.09-.33.17-.45.24-.12.07-.34.14-.64.2h.05c-.09.02-.21.03-.37.05-.16.02-.33.04-.52.06-.19.02-.36.04-.52.06-.16.02-.28.03-.34.03 1.58 1.9 3.17 3.81 4.75 5.72l.27.36c.09.04.21.09.39.14.17.05.34.09.52.13.18.04.35.08.51.11.16.04.28.06.34.06.22.38.29.6.23.65-.06.05-.16.07-.31.04-.16 0-.32-.02-.48-.03-.12 0-.25-.02-.37-.03-.12-.02-.26-.03-.4-.04l-1.12-.06H397.8c-.13 0-.27-.01-.4-.02-.14.01-.29.01-.44 0-.15 0-.27-.01-.36-.02-.42-.02-.66-.06-.72-.12h.13c-.09 0-.15-.02-.17-.04a.382.382 0 01-.09-.09c-.06-.06-.13-.17-.23-.31-.1-.15-.25-.33-.44-.56-1.81-2.31-3.63-4.61-5.45-6.91 0 1.78.02 3.56.03 5.34.02.44.04.89.05 1.33-.02.08.07.16.27.24.19.08.4.17.62.26.22.09.42.17.58.24.17.07.22.14.17.19-.09.1-.18.2-.27.31-1.17-.05-2.15-.08-2.94-.11-.79-.02-1.42-.04-1.91-.06-.49-.02-.85-.03-1.1-.04-.25 0-.42-.02-.51-.05l-.24-.21c.04-.12.09-.25.13-.37.63-.21 1.26-.42 1.89-.62V31.8zm3.24 9.17c0 .25.03.4.09.44.06.04.16.11.3.21.16.12.32.24.48.37.16.12.23.17.21.15.18.1.31.18.42.23.11.05.19.08.25.1.06.01.11.02.15.03.03.01.09.03.16.05.18.08.4.13.66.13.27 0 .52 0 .74-.03.23-.02.41-.04.56-.05.14-.01.19 0 .13.03.53-.23.97-.53 1.3-.91.33-.38.63-.87.88-1.48.09-.19.17-.39.25-.6.08-.21.16-.46.23-.74.06-.17.08-.46.09-.86.01-.4 0-.74-.01-1.01-.02-.31-.04-.62-.07-.94-.03-.32-.08-.59-.17-.8-.14-.41-.27-.74-.37-.99-.11-.25-.21-.46-.32-.64-.16-.28-.36-.53-.61-.75-.24-.22-.42-.38-.5-.48-.21-.18-.4-.32-.57-.41-.17-.09-.32-.16-.44-.21-.2-.07-.37-.11-.53-.14-.16-.03-.31-.04-.45-.05-.2-.03-.49-.02-.88.02-.13.03-.26.04-.41.01-.15-.02-.33 0-.54.1.02 0-.02.03-.11.08s-.18.11-.27.16l-.48.27c-.04.04-.07.1-.11.2-.04.1-.06.25-.05.46 0 2.66-.02 5.33-.03 7.99v.03z"/></g></g></svg>