<?xml version="1.0" encoding="UTF-8"?>
<svg id="Layer_2" data-name="Layer 2" xmlns="http://www.w3.org/2000/svg" viewBox="0 0 336.19 107.26">
  <defs>
    <style>
      .cls-1 {
        fill: #714525;
        stroke: #442015;
        stroke-linejoin: round;
        stroke-width: 2.93px;
      }

      .cls-2 {
        fill: #442015;
      }

      .cls-2, .cls-3 {
        stroke-width: 0px;
      }

      .cls-3 {
        fill: #dfb980;
      }
    </style>
  </defs>
  <g id="Layer_1-2" data-name="Layer 1">
    <g>
      <rect class="cls-1" x="1.47" y="1.47" width="333.26" height="104.32"/>
      <rect class="cls-3" x="126.29" y="-102.65" width="83.61" height="312.55" transform="translate(221.73 -114.47) rotate(90)"/>
      <g>
        <path class="cls-2" d="m80.27,43.56c.27.51.45.92.56,1.23.1.31.19.6.25.87.09.48.15.89.18,1.23.03.34.04.67.04.96-.03.42-.07.8-.11,1.14-.04.34-.14.72-.29,1.14-.15.57-.41,1.16-.78,1.79-.37.63-.8,1.23-1.28,1.81-.48.58-.99,1.1-1.54,1.54-.55.45-1.1.78-1.63.99-.36.15-.79.27-1.3.36-.51.09-1.03.17-1.57.22-.39.06-.81.1-1.25.13-.45.03-.91.06-1.39.09-.45,0-.86-.02-1.23-.07-.37-.04-.74-.1-1.1-.16-.48-.09-.93-.18-1.37-.27-.43-.09-.77-.19-1.01-.31l-.85-.45v8.19c0,.48,0,.92-.02,1.32-.02.4-.04.68-.07.83l.31.85,3.27.9.09.54-10.97-.09h-1.97l.04-.54,2.46-.4.63-.63c.06-.06.22-.42.49-1.07h-.04c.06-.18.1-.38.13-.6s.07-.54.13-.96c.03-.27.04-.67.04-1.21v-21.04c0-.63-.05-1.04-.16-1.25-.1-.21-.25-.36-.43-.45-.18-.12-.34-.22-.47-.29-.13-.07-.25-.13-.34-.16-.24-.06-.33-.1-.27-.13.06-.03,0-.06-.18-.09-.69-.12-1.22-.21-1.59-.27-.37-.06-.66-.12-.85-.18-.19-.06-.35-.11-.47-.16-.12-.04-.27-.1-.45-.16-.15-.09-.25-.13-.31-.13s-.07-.03-.04-.09c.09-.18.14-.25.16-.22.01.03.2.09.56.18.36.09,1,.19,1.92.29.92.1,2.34.14,4.25.11l7.66-.13c.24-.03.47-.05.69-.07.22-.01.45-.05.69-.11.15,0,.31,0,.47-.02.16-.01.32-.02.47-.02.21-.03.44-.05.69-.07.25-.02.5-.02.74-.02.87,0,1.52.06,1.97.18h-.04c1.49.3,2.77.88,3.83,1.75,1.06.87,1.93,1.92,2.62,3.18Zm-4.66,4.61c.03-.81-.04-1.66-.2-2.55-.16-.9-.43-1.69-.78-2.37-.54-.98-1-1.67-1.39-2.06-.72-.69-1.22-1.1-1.52-1.25-.6-.27-1.03-.45-1.3-.54-.27-.09-.59-.13-.96-.13s-.91.04-1.61.11c-.7.07-1.77.13-3.2.16l.04.18-.09,13.61c0,.36,0,.58.02.65.01.08.05.14.11.2.06.06.1.09.11.09s-.02.03-.11.09c.27.15.48.28.63.4.15.12.29.23.43.34s.28.2.43.29c.15.09.36.19.63.31h-.04c.57.21,1.17.33,1.81.36.64.03,1.25,0,1.81-.09h.16c.07,0,.14-.01.2-.04h-.04c.12-.03.26-.07.43-.13.16-.06.4-.18.69-.36.15-.09.33-.16.54-.22.21-.06.48-.24.81-.54.21-.18.58-.7,1.12-1.57.27-.42.55-1.16.85-2.24.3-.83.45-1.73.45-2.69Z"/>
        <path class="cls-2" d="m98.93,67.19c.78,0,1.5-.02,2.17-.07s1.17-.11,1.5-.2l3-5.24.76.13-1.34,6.58c-3.16-.03-5.83-.04-8.01-.04h-8.75c-.79,0-1.38,0-1.77-.02-.39-.01-.62-.04-.69-.07-.08-.03-.11-.06-.11-.09v-11.66c0-1.57,0-3.13.02-4.68.01-1.55.02-3.01.02-4.39v-5.51l-.22-1.25c-.15-.09-.27-.22-.36-.38-.09-.16-.16-.26-.22-.29l-1.92-.36h-.45c-.72,0-1.13-.12-1.25-.36-.12-.24-.16-.39-.13-.45h-.04s.08-.06.25-.09c.16-.03.34-.04.52-.04.06-.03.11-.04.16-.02.04.02.25.02.6.02h5.69c.3-.03.62-.04.96-.04s.59.02.74.04c.72,0,1.1.04,1.16.13h-.18c.18.24.3.33.36.27v28.02c.95,0,1.93,0,2.93.02,1,.02,1.8.02,2.4.02h2.24Z"/>
        <path class="cls-2" d="m114.24,68.04c-.33,0-.66,0-1.01-.02-.34-.01-.72-.02-1.14-.02-.51,0-1.18.02-2.01.04-.84.03-1.6.07-2.28.13-.06-.06-.05-.16.02-.29.08-.13.2-.25.38-.34.06-.03.31-.04.76-.04.06,0,.12,0,.18-.02.06-.01.12-.02.18-.02.42-.03.88-.07,1.39-.11.51-.04,1.01-.11,1.5-.2.49-.09.94-.22,1.34-.4.4-.18.71-.42.92-.72.48-1.43,1.02-2.98,1.63-4.66.61-1.67,1.22-3.33,1.81-4.99.6-1.66,1.18-3.23,1.75-4.72.57-1.49,1.05-2.78,1.45-3.87.4-1.09.69-1.92.87-2.48s.21-.73.09-.49h-.04c0-.06.01-.07.04-.04.03.03.04.02.04-.04l-2.1-3.85h.04c-.9-.48-1.52-.79-1.88-.94l-.76-.27c-.42-.18-.74-.31-.96-.38-.22-.07-.43-.14-.6-.2-.75-.15-1.33-.22-1.75-.22s-.82.07-1.21.22l-.31.18c-.33.18-.63.31-.9.4s-.54.06-.81-.09h.27c-.45-.09-.6-.19-.45-.31.78-.51,1.47-.8,2.08-.87.61-.07,1.2-.07,1.77.02.51.03.92.07,1.25.13.33.06.66.12.98.18l.72.13c.15.03.33.05.54.07.21.02.39.05.54.11l.67.13,1.03.18h-.22c.45.06.87.06,1.25,0,.42-.18.75-.33,1.01-.45.25-.12.46-.21.63-.27.16-.06.3-.1.4-.11.1-.01.23-.02.38-.02.98-.21,1.48-.12,1.48.27h-.09l12.85,26.5h-.04c.42.69.7,1.13.85,1.32.15.19.25.32.31.38l.9.45c.12.06.28.09.49.09h.04c.09,0,.16-.01.22-.04.92,0,1.39.03,1.39.09h-.27s.04.11.02.25c-.02.13-.04.22-.07.25-.12.12-.48.18-1.07.18-.3.06-.67.06-1.12,0h.04c-.06,0-.1,0-.13-.02-.03-.01-.07-.02-.13-.02-.27,0-.58,0-.94-.02-.36-.01-.72-.04-1.07-.07h-3c-.18,0-.35,0-.52-.02-.16-.01-.32-.02-.47-.02h-1.97c-.15,0-.29,0-.43.02s-.26.02-.38.02c-.24,0-.43.02-.58.04h-1.52c-.42-.06-.57-.13-.45-.22.12-.09.34-.22.67-.4h1.48c.24,0,.55-.07.94-.22h-.04l.13-.13c.18-.09.3-.25.36-.49.15-.21.23-.41.25-.6.01-.19-.05-.46-.2-.78l-5.01-10.12h-6.58c-.87,2.3-1.54,4.08-2.01,5.35-.48,1.27-.84,2.22-1.07,2.84-.24.63-.39,1.03-.45,1.21-.06.18-.1.31-.13.4h.04c0,.06-.02.09-.04.09s-.04.03-.04.09c-.06.27-.1.45-.11.54-.02.09,0,.21.02.36,0,.18,0,.33-.02.45-.02.12-.04.17-.07.13.33.27.66.47,1.01.6.34.13.66.23.94.29.28.06.6.1.96.13l.81.36c0,.06-.03.12-.09.18-.06.06-.19.1-.38.11-.19.02-.54,0-1.05-.07h-.43c-.13,0-.28-.01-.43-.04h.04c-.18-.03-.37-.05-.56-.07-.19-.01-.4-.02-.6-.02-.18,0-.33,0-.45-.02-.12-.01-.25-.02-.38-.02h-1.32Zm8.82-20.91l-2.6,6.76h2.84c.97,0,1.87-.01,2.71-.04l-2.95-6.71Z"/>
        <path class="cls-2" d="m132.87,39.62c-.15.06-.24.05-.27-.02-.03-.07.06-.07.27.02Zm29.08-.85h-1.3c-.64,0-1.57,0-2.8.02-1.22.02-2.87.04-4.92.07-.24.06-.43.16-.56.29s-.25.2-.34.2c.03,0,.05,0,.07.02.01.02.04.02.07.02.24.12.46.19.67.2.21.02.48.02.81.02l2.6-.13c.18.06.46.11.85.16.39.04.67.11.85.2.12.06.37.16.76.29.39.13.66.32.81.56l-1.79,3.18h.09l-6.36,9.94-7.79-14.37h.13l-.72-.36h-1.16c-.3-.03-.69-.04-1.16-.04h-4.03c-.39.03-.77.04-1.14.02-.37-.01-.81-.04-1.32-.07h-.81l-.58.63.36.13h.94l1.43.09c.15,0,.37,0,.67.02.3.02.52.04.67.07.21.03.57.16,1.07.4h-.04l.81.81h-.04l7.21,13.16.76,1.3s0-.03.02,0c.01.03.05.13.11.31v9.36c0,.48-.03.83-.09,1.07-.06.24-.13.42-.22.54-.21.24-.38.45-.52.63-.13.18-.19.27-.16.27-.06.03-.19.06-.4.09-.21.03-.43.05-.65.07-.22.02-.43.03-.6.04-.18.02-.28.02-.31.02l-.04.58c.3.12.6.16.92.11.31-.04.66-.07,1.05-.07h2.71c.7,0,1.45,0,2.24-.02.79-.01,1.54-.03,2.24-.04.7-.01,1.3-.02,1.79-.02s.78-.01.87-.04c.18-.15.29-.28.34-.38.04-.1.05-.18.02-.22-.03-.04-.07-.07-.13-.09-.06-.02-.07-.02-.04-.02l-3.09-1.12-.27-1.75v-9.89h-.18c1.7-2.57,3.15-4.73,4.34-6.49,1.19-1.76,2.19-3.21,3-4.36.81-1.15,1.45-2.04,1.92-2.66.48-.63.84-1.1,1.07-1.41.24-.31.4-.51.49-.58.09-.07.15-.13.18-.16l.13-.22c-.15-.09-.31-.16-.47-.2-.16-.04-.37-.1-.6-.16h-.42Zm-15.2,16.88l-.04-.04.04.04Zm16.83-16.7c0,.06,0,.12.02.18.01.06.02.1.02.13l-.18-.13.13-.18Z"/>
        <path class="cls-2" d="m197.91,68.36h-1.99c-.13,0-.23-.02-.29-.04-.24-.06-.4-.12-.49-.18-.09-.06-.1-.15-.04-.27,0,.09.01.12.04.09l1.03-1.3h-.04c.09-.12.25-.35.47-.69.22-.34.5-.78.83-1.32.42-.63.97-1.6,1.66-2.91.24-.39.46-.88.67-1.48.21-.6.43-1.19.67-1.79.18-.57.37-1.23.56-1.99.19-.76.37-1.57.51-2.44.15-.87.27-1.75.36-2.66.09-.91.13-1.8.13-2.66,0-1.64-.16-2.98-.49-4.03-.33-.9-.73-1.69-1.21-2.4-.48-.7-1.02-1.23-1.61-1.59h.04c-.63-.39-1.27-.63-1.92-.72-.66-.09-1.28-.13-1.88-.13-.81,0-1.63.12-2.46.36-.84.24-1.64.72-2.42,1.43h.04c-.15.15-.28.26-.4.34-.12.07-.25.18-.38.31s-.28.31-.43.52c-.15.21-.3.49-.45.85-.12.3-.23.57-.34.83-.1.25-.2.57-.29.94-.09.37-.16.84-.2,1.39-.04.55-.07,1.26-.07,2.13v15.89c0,.96.07,1.54.2,1.77.13.22.28.35.42.38.42.15.82.22,1.21.22.12,0,.23,0,.34.02s.23.02.38.02l1.48.54-.09.54h-.58s.04.05.11.07c.07.02-.08.02-.47.02h-2.37c-2.39-.06-4.29-.06-5.71,0-1.42.06-2.46.1-3.13.11-.67.02-1.02-.02-1.05-.11-.03-.09.13-.31.49-.67-.24-.06-.29-.11-.16-.16s.32-.08.56-.11c.27-.03.61-.06,1.03-.09l.63-.13s.04,0,.02.02c-.02.02.1-.05.34-.2l.18-.09c.09-.03.27-.18.54-.45-.06.03-.09-.18-.09-.63v-.78c0-.22,0-.55.02-.98.01-.43.02-.99.02-1.66v-21.02c-.06-.48-.1-.75-.11-.83-.02-.07-.1-.17-.25-.29l-1.92-.4c-.18-.03-.4-.04-.65-.04h-.72c-.22,0-.39-.01-.49-.04-.1-.03-.1-.09.02-.18.06-.06.02-.13-.11-.22-.13-.09-.1-.13.11-.13.24-.09.66-.09,1.25,0l6.09-.36c.15-.03.31-.04.49-.04h1.19c.25,0,.4.02.43.04h-.31c.33.03.52.12.58.27.06.15.09.45.09.9v3.04c.3-.69.72-1.31,1.25-1.88s1.15-1.05,1.84-1.46c.69-.4,1.43-.71,2.24-.92.81-.21,1.64-.31,2.51-.31,1.01,0,2.03.09,3.04.27,1.01.18,1.97.45,2.87.81.9.36,1.7.8,2.42,1.32.72.52,1.3,1.13,1.75,1.81.83,1.28,1.42,2.59,1.77,3.92.34,1.33.52,2.66.52,4.01s-.12,2.63-.36,3.94c-.24,1.31-.57,2.63-.98,3.94-.09.24-.18.5-.27.78-.09.28-.27.7-.54,1.25-.27.55-.66,1.28-1.19,2.19-.52.91-1.25,2.11-2.17,3.6,0,.21-.02.31-.04.31l.27.13c.69.24,1.38.44,2.08.6.7.16,1.26.28,1.68.33l-.04.45-8.24.09Z"/>
        <path class="cls-2" d="m243.66,53.27c.03.6.01,1.13-.04,1.61-.06.48-.13.96-.22,1.43-.09.45-.19.89-.31,1.32-.12.43-.24.86-.36,1.28-.06.27-.15.54-.27.83-.12.28-.37.69-.76,1.23h.04c-.36.66-.96,1.45-1.79,2.37-.84.93-1.72,1.78-2.64,2.55-.3.24-.69.49-1.16.74-.48.25-.96.5-1.43.74l-.04.04c-.33.12-.64.23-.94.34-.3.1-.73.23-1.3.38h.04c-.6.15-1.3.28-2.1.38s-1.67.16-2.6.16c-.3,0-.6,0-.9-.02-.3-.01-.6-.04-.9-.07-1.31-.09-2.57-.31-3.76-.65-1.19-.34-2.24-.78-3.13-1.32-.69-.42-1.22-.78-1.61-1.1-.39-.31-.72-.59-.98-.83-.78-.84-1.4-1.56-1.88-2.17-.48-.61-.87-1.19-1.16-1.72-.3-.54-.51-.97-.65-1.3-.13-.33-.26-.64-.38-.94-.15-.54-.28-1.06-.4-1.57-.12-.51-.21-.97-.27-1.39-.06-.45-.1-.9-.13-1.37-.03-.46-.02-.99.04-1.59.06-.45.15-.97.27-1.57.12-.6.33-1.28.63-2.06h-.04c.21-.51.45-1.06.74-1.66.28-.6.66-1.27,1.14-2.01.66-.98,1.49-1.94,2.51-2.86.33-.27.72-.55,1.16-.85.45-.3.95-.61,1.52-.94.36-.21.73-.4,1.12-.58.39-.18.88-.39,1.48-.63.69-.3,1.66-.51,2.91-.63.54-.06,1.09-.11,1.66-.16.57-.04,1.15-.05,1.75-.02.63.03,1.25.08,1.88.16.63.07,1.21.19,1.75.34.57.18,1.12.36,1.66.54.54.18,1,.37,1.39.58.6.33,1.12.64,1.57.94.45.3.9.64,1.34,1.03.45.39.86.75,1.23,1.07.37.33.63.6.78.81.42.51.77.98,1.05,1.41.28.43.5.8.65,1.1h-.04c.66,1.22,1.09,2.21,1.3,2.95.18.63.32,1.26.43,1.9s.17,1.23.2,1.77Zm-5.86,6.85c.09-.42.16-.87.22-1.34.06-.48.07-1.06.04-1.75,0-.66-.03-1.31-.09-1.95-.06-.64-.16-1.23-.31-1.77-.18-.69-.35-1.3-.51-1.86-.16-.55-.35-1.05-.56-1.5-.24-.6-.47-1.15-.69-1.66-.22-.51-.46-.97-.69-1.39-.36-.63-.7-1.18-1.03-1.66-.33-.48-.66-.87-.98-1.16-1.1-1.04-1.99-1.76-2.64-2.15-1.04-.57-1.85-.97-2.42-1.21-.81-.3-1.6-.45-2.37-.45-.45,0-.9.02-1.34.07-.45.04-.88.14-1.3.29-.39.12-.75.27-1.07.45-.33.18-.7.4-1.12.67-.3.18-.61.4-.94.67-.33.27-.7.61-1.12,1.03-.21.15-.4.39-.58.72-.18.33-.39.7-.63,1.12-.12.21-.24.54-.36.98-.12.45-.22.96-.31,1.52-.06.33-.1.69-.11,1.07-.02.39-.02.78-.02,1.16,0,.27,0,.56.02.87.01.31.04.6.07.87.06.81.16,1.5.31,2.08.15.58.31,1.08.49,1.5.15.45.32.87.51,1.28.19.4.37.77.52,1.1h-.18l.49.58c.39.84.64,1.33.76,1.48.24.42.48.82.74,1.21.25.39.43.64.51.76.33.42.63.78.9,1.07.27.3.51.55.72.76.36.39.67.72.94,1.01.27.28.45.46.54.51.33.24.61.46.85.65.24.19.43.32.58.38,1.07.69,2.3,1.08,3.67,1.16,1.04.06,2.13-.11,3.27-.51,1.13-.4,2.18-1.04,3.13-1.9.21-.15.42-.41.63-.78.21-.37.43-.83.67-1.37.15-.33.28-.72.4-1.16.12-.45.24-.94.36-1.48h.04Zm.27-17.86c.12.12.21.19.27.22l-.18-.22h-.09Z"/>
        <path class="cls-2" d="m282.43,38.68c.39.06.61.1.67.13h-.18c.09.12.16.18.22.18-.06.12-.1.28-.13.49-.06.24-.2.69-.43,1.34-.22.66-.62,1.76-1.19,3.31l-3.27,9.67-2.73,8.1-1.16,3.09c-.33.87-.54,1.45-.65,1.77-.1.31-.17.53-.2.65l-.31.54c-.3.3-.63.5-1.01.6-.37.1-.71,0-1.01-.29h.36c-.18,0-.33-.04-.45-.11-.12-.07-.22-.19-.31-.36-.09-.16-.19-.4-.29-.69-.1-.3-.23-.7-.38-1.21l-.36-1.12c-.72-2.3-1.45-4.58-2.19-6.85-.75-2.27-1.48-4.55-2.19-6.85-.21-.54-.34-.97-.4-1.3-.03.06-.04.1-.04.13-.21.57-.46,1.27-.74,2.1-.28.84-.57,1.72-.87,2.64-.33.96-.64,1.91-.94,2.87-.3.96-.58,1.81-.85,2.55l-1.92,5.6c-.15.39-.31.81-.47,1.25-.16.45-.31.79-.42,1.03-.06.15-.17.26-.34.34-.16.07-.34.11-.51.11h.4c-.24.24-.53.3-.87.18-.34-.12-.69-.28-1.05-.49-.03-.03-.06-.07-.09-.13-.03-.06-.09-.22-.18-.49-.09-.27-.22-.69-.38-1.25-.16-.57-.4-1.34-.69-2.33l-3.72-12.71c-.27-.96-.53-1.86-.78-2.71-.25-.85-.49-1.62-.69-2.31-.36-1.16-.63-2.08-.83-2.75-.19-.67-.35-1.18-.47-1.52-.12-.34-.19-.56-.22-.65-.03-.09-.06-.16-.09-.22h.04c-.33-.51-.57-.81-.72-.9h.13c-.51-.3-.97-.49-1.39-.58-.75-.12-1.72-.21-2.91-.27h-.74c-.19,0-.32.02-.38.04l.13-.13c.33-.15.6-.24.83-.27.22-.03.5-.04.83-.04h.72c.18,0,.38,0,.6.02.22.02.47.02.74.02h1.5c.55,0,1.1.02,1.63.04h3.92c.16,0,.28.03.34.09.09.09.16.17.22.25.06.07.12.19.18.36.06.16.13.38.2.65.07.27.19.63.34,1.07.18.6.4,1.34.65,2.24.25.9.57,2,.96,3.31.39,1.31.84,2.87,1.37,4.68.52,1.81,1.14,3.9,1.86,6.29l.36-.85,4.48-13.34,1.07-2.82h-.04c.06-.15.1-.25.13-.29.03-.04.15-.17.36-.38.06-.06.39-.09.98-.09.69,0,1.09.1,1.21.31,0,.03.01.09.04.18.03.09.1.32.22.69.12.37.3.93.54,1.66.24.73.57,1.74,1.01,3.02.43,1.28.98,2.89,1.63,4.83.66,1.94,1.45,4.3,2.37,7.07.18-.54.4-1.19.67-1.97.27-.78.59-1.72.96-2.84.37-1.12.81-2.41,1.32-3.87.51-1.46,1.09-3.15,1.75-5.06.21-.69.31-1.31.31-1.86s-.04-1.04-.13-1.45c-.09-.54-.22-.87-.4-.98-.15-.12-.3-.19-.45-.22-.15-.03-.3-.07-.45-.13h.18c-.06,0-.11,0-.16-.02-.04-.01-.08-.02-.11-.02-.3-.06-.56-.1-.78-.11-.22-.01-.38-.02-.47-.02-.06,0-.12,0-.18-.02-.06-.01-.12-.02-.18-.02l-2.19-.13h-2.28c-.33.03-.66.04-1.01.04s-.59-.02-.74-.04c-.6,0-.93-.03-.98-.09h-.04l.63-.31h2.24c.21,0,.43,0,.67-.02.24-.01.48-.02.72-.02h2.95c.27,0,.54,0,.81.02.27.02.52.02.76.02h2.22c.28,0,.56-.01.83-.04h.67c.21,0,.4-.01.58-.04.78,0,1.19.02,1.25.04Zm-14.33.36s-.09,0-.18.09l.18-.09Zm15.13-.18c-.06.06-.09.1-.09.13l.09-.13Z"/>
      </g>
    </g>
  </g>
</svg>