<?xml version="1.0" encoding="UTF-8"?>
<svg id="Layer_2" data-name="Layer 2" xmlns="http://www.w3.org/2000/svg" viewBox="0 0 803.65 329.34">
  <defs>
    <style>
      .cls-1 {
        fill: #dfb980;
        stroke: #714525;
        stroke-miterlimit: 10;
        stroke-width: 6.05px;
      }

      .cls-2 {
        fill: #714525;
        stroke-width: 0px;
      }
    </style>
  </defs>
  <g id="Layer_1-2" data-name="Layer 1">
    <g>
      <g>
        <path class="cls-1" d="m205.34,307.55s30.04,18.77-65.41,18.77c0,0-43.46-6.82-48.58-7.67s-48.58,4.26-48.58,4.26l-28.12-11.08s46.87-19.6,57.1-26.42,36.65-45.17,36.65-45.17l11.93-31.53s-49.43-26.42-52.84-28.12-28.12-28.12-34.09-28.12H7.83s21.56-19.57,41.87-17.03,39.78,1.69,39.78,1.69c0,0,33.85,5.08,36.39,5.08s62.63-3.39,62.63-3.39l16.84,168.73Z"/>
        <path class="cls-1" d="m168.05,282c-14.64-3.65,1.04,12.91,5.1,15.36,10.1,6.09,21.58,7.15,32.19,10.18,4.12-10.52,3.63-21.07,3.62-32.16-.01-17.16,1.56-34.11,2.44-51.26,1.18-23.09,8.2-45.39,9.4-68.44.65-12.53-.63-24.84-1.79-37.29-.76-8.13.16-25.54-3.63-32.35-3.55-6.4-14.7-10.61-20.67-14.05-8.4-4.83-19.7-17.49-29.22-13.29l2.56,223.28Z"/>
      </g>
      <g>
        <path class="cls-1" d="m598.31,21.79s-30.04-18.77,65.41-18.77c0,0,43.46,6.82,48.58,7.67s48.58-4.26,48.58-4.26l28.12,11.08s-46.87,19.6-57.1,26.42-36.65,45.17-36.65,45.17l-11.93,31.53s49.43,26.42,52.84,28.12,28.12,28.12,34.09,28.12,25.57,0,25.57,0c0,0-21.56,19.57-41.87,17.03-20.31-2.54-39.78-1.69-39.78-1.69,0,0-33.85-5.08-36.39-5.08s-62.63,3.39-62.63,3.39l-16.84-168.73Z"/>
        <path class="cls-1" d="m635.6,47.34c14.64,3.65-1.04-12.91-5.1-15.36-10.1-6.09-21.58-7.15-32.19-10.18-4.12,10.52-3.63,21.07-3.62,32.16.01,17.16-1.56,34.11-2.44,51.26-1.18,23.09-8.2,45.39-9.4,68.44-.65,12.53.63,24.84,1.79,37.29.76,8.13-.16,25.54,3.63,32.35,3.55,6.4,14.7,10.61,20.67,14.05,8.4,4.83,19.7,17.49,29.22,13.29l-2.56-223.28Z"/>
      </g>
      <g>
        <path class="cls-1" d="m164.29,42.13c9.49,2.01,19.48,5.16,29.13,5.89,14.59,1.11,30.71-3.67,45.59-3.58,11.02.06,52.47-5.15,53.48,7.08,6.86-3.65,19.42-3.92,22.47-11.43,29.22,10.04,52.04,11.99,83,6.71,15.96-2.72,31.45-2.52,47.65-1.76,12.74.6,23.9.27,36.42-2.32,13.49-2.79,11.06-1.37,23.05,2.76,11.86,4.09,16.43-2.68,28.32-3.35,18-1.01,39.51.95,57.5,2.39,18.39,1.47,32.81.41,50.74.02.74,20.24-3.97,40.1-2.31,60.64,1.56,19.36,4.96,38.81,7.06,57.63,1.15,10.3,3.57,21.51,3.82,31.83.17,7.18-2.12,12.6-3.23,19.78-1.92,12.47,4.27,19.11,6.44,29.91,1.98,9.83.1,22.28-.09,32.34-15.13-.64-30.38,4.29-45.2,6.61-16.42,2.57-33.02,1.85-49.6,1.07-53.71-2.53-107.77-2.31-161.5-4.15-21.01-.72-42.29-4.1-63.27-2.93-33.48,1.86-66.83,8.71-100.4,8.91-24.26.15-46.84-2.42-70.48-3.48-3.32-21.23,2.94-43.19,1.08-64.41-1.24-14.13-7.14-25.48-5.09-40.1,1.81-12.87,2.75-23.91,2.92-36.5.26-19.51,1.06-37.25-.79-56.38-.92-9.52-.23-19.63,3.27-43.19Z"/>
        <g>
          <path class="cls-2" d="m217.76,83.63c-.36.09-.58.04-.65-.15-.07-.19.14-.14.65.15Zm70.44,2.94c-.54,0-1.59-.02-3.15-.04-1.56-.02-3.81-.04-6.78-.08-2.97-.04-6.94-.1-11.93-.25-.58.12-1.03.33-1.36.64-.32.31-.6.46-.81.45.07,0,.12.02.16.06.04.04.09.06.16.06.58.32,1.12.51,1.63.56.51.06,1.16.1,1.95.14,2.1-.02,4.19-.05,6.29-.1.44.16,1.12.31,2.06.44.94.13,1.63.31,2.06.54.29.15.9.4,1.84.75.94.35,1.59.81,1.95,1.4-1.45,2.54-2.89,5.07-4.34,7.6.07,0,.14,0,.22,0-5.13,7.9-10.27,15.73-15.4,23.5-6.29-11.92-12.58-23.95-18.87-36.09.11,0,.22.02.33.03-.58-.34-1.16-.68-1.74-1.02-.94-.08-1.88-.17-2.82-.26-.72-.14-1.66-.27-2.82-.38-1.16-.12-2.28-.23-3.36-.35-2.13-.23-4.27-.47-6.4-.73-.94-.04-1.86-.14-2.76-.29-.91-.15-1.97-.34-3.2-.58-.65-.09-1.3-.18-1.95-.27-.47.44-.94.88-1.41,1.32.29.15.58.3.87.45.76.11,1.52.21,2.28.31,1.16.23,2.31.45,3.47.67.36.05.9.13,1.63.26.72.13,1.26.25,1.63.36.51.13,1.37.56,2.6,1.28-.04,0-.07,0-.11-.01.65.73,1.3,1.45,1.95,2.17-.04,0-.07,0-.11-.01,5.82,11.27,11.64,22.43,17.46,33.5.61,1.09,1.23,2.19,1.84,3.28,0-.07.02-.07.05,0,.04.07.13.33.27.78v22.67c0,1.16-.07,2.02-.22,2.59-.15.57-.32.99-.54,1.26-.51.54-.92,1.02-1.25,1.43-.32.41-.45.62-.38.62-.15.06-.47.11-.98.14-.51.03-1.03.05-1.57.04-.54,0-1.03-.01-1.46-.01-.43,0-.69,0-.76,0-.04.47-.07.93-.11,1.4.72.35,1.46.5,2.22.45.76-.05,1.61-.03,2.55.04.22.02.94.07,2.17.16,1.23.09,2.69.19,4.39.3,1.7.11,3.51.2,5.42.26,1.91.07,3.72.12,5.42.16,1.7.04,3.15.08,4.34.12,1.19.04,1.9.03,2.11-.03.43-.35.7-.65.81-.9.11-.25.13-.43.05-.54-.07-.11-.18-.19-.33-.23-.15-.04-.18-.06-.11-.06-2.49-.99-4.99-1.99-7.48-3-.22-1.42-.43-2.84-.65-4.26v-23.97c-.14,0-.29-.01-.43-.02,4.12-6.02,7.63-11.14,10.52-15.32,2.89-4.18,5.31-7.65,7.27-10.4,1.95-2.75,3.51-4.88,4.66-6.38,1.16-1.5,2.02-2.64,2.6-3.39.58-.76.98-1.22,1.19-1.4.22-.18.36-.31.43-.38.11-.18.22-.36.33-.54-.36-.22-.74-.38-1.14-.49-.4-.11-.88-.24-1.46-.39-.14,0-.49,0-1.03,0Zm-36.82,39.44s-.07-.08-.11-.12c.04.04.07.08.11.12Zm40.78-38.97c0,.14.02.29.05.43.04.15.05.25.05.33-.14-.11-.29-.22-.43-.33.11-.14.22-.29.33-.43Z"/>
          <path class="cls-2" d="m286.95,135.46c-.36-1.23-.71-2.41-1.03-3.54-.33-1.12-.56-2.27-.71-3.43-.29-2.61-.4-5.25-.33-7.92.07-1.23.2-2.45.38-3.68.18-1.23.49-2.52.92-3.89.29-1.08.68-2.23,1.19-3.46.51-1.22,1.12-2.55,1.84-3.99-.04,0-.07,0-.11,0,.43-.86.99-1.78,1.68-2.75.69-.97,1.6-2.11,2.76-3.4.65-.79,1.45-1.61,2.39-2.44.94-.83,1.91-1.65,2.93-2.45.58-.44,1.19-.89,1.84-1.37.65-.47,1.52-1,2.6-1.59,1.16-.59,2.46-1.18,3.9-1.78,1.45-.6,3.04-1.2,4.77-1.82,1.16-.38,2.38-.72,3.69-1,1.3-.28,2.71-.52,4.23-.71.65-.09,1.34-.17,2.06-.22.72-.06,1.52-.1,2.39-.13.72-.02,1.46-.03,2.22-.02.76,0,1.54.04,2.33.08,1.88.22,3.54.49,4.99.83,1.45.34,2.75.66,3.9.97,3.47,1.29,6.13,2.54,7.97,3.79,1.84,1.24,3.05,2.28,3.63,3.12-2.71,2.97-5.42,5.93-8.13,8.88-.29-.71-.65-1.54-1.08-2.5-.43-.96-.94-1.91-1.52-2.86-.58-.95-1.28-1.87-2.11-2.78-.83-.9-1.76-1.66-2.77-2.27-1.16-.67-2.3-1.26-3.42-1.76-1.12-.5-2.37-.87-3.74-1.11-1.37-.24-2.89-.37-4.56-.39-1.67-.02-3.61.11-5.86.38-1.45.18-2.75.64-3.91,1.39-1.15.75-2.19,1.63-3.09,2.66-.9,1.03-1.7,2.13-2.39,3.29-.69,1.17-1.28,2.3-1.79,3.39-.51.8-.92,1.66-1.25,2.56-.32.91-.67,1.8-1.03,2.67-.29.73-.56,1.65-.81,2.77-.25,1.12-.49,2.28-.71,3.48-.22,1.19-.36,2.28-.43,3.26-.07.98-.04,1.68.11,2.11,0,.25,0,.51,0,.76,7.74-.24,15.47-.59,23.21-1.02,1.01-.03,1.83-.39,2.44-1.06.61-.67,1.1-1.45,1.46-2.33.36-.88.65-1.8.87-2.74.22-.95.5-1.72.87-2.31.51-.02,1.01-.04,1.52-.06.07,6.68.14,13.37.22,20.05-.4.02-.79.03-1.19.05-1.01-2.31-2.03-4.62-3.04-6.94-.22,0-.58,0-1.08-.01-.51-.02-1.09-.03-1.74-.05-.65-.01-1.3-.01-1.95,0-.65.02-1.19.04-1.63.05-4.19.06-7.43.11-9.71.19-2.27.08-4.03.16-5.26.25-1.23.09-2.15.15-2.77.19-.61.04-1.36.07-2.22.07.11,1.23.22,2.46.33,3.68.22,1.73.44,3.2.65,4.39.22,1.19.43,2.26.65,3.19.36,1.44.67,2.69.92,3.73.25,1.05.56,1.97.92,2.76.36,1.01.74,1.87,1.14,2.59.4.72.81,1.36,1.25,1.93-.04,0-.07,0-.11,0,.25.39.51.79.76,1.18-.04,0-.07,0-.11,0,.94,1.22,2.04,2.43,3.31,3.63,1.26,1.21,2.6,2.28,4.01,3.22,1.41.94,2.89,1.63,4.45,2.05,1.55.43,3.13.47,4.72.13,4.48-.94,8.44-2.91,11.88-5.88,3.43-2.97,5.87-7.03,7.32-12.16,2.57,2.58,5.13,5.16,7.7,7.73-1.3,1.95-2.68,3.65-4.12,5.1-1.45,1.45-3.14,2.69-5.1,3.73-1.95,1.03-4.19,1.9-6.73,2.59-2.53.69-5.53,1.24-9,1.65-1.16.11-2.28.19-3.36.22-1.09.03-2.13,0-3.15-.12-1.3-.03-2.51-.15-3.63-.34-1.12-.19-2.26-.45-3.42-.79-1.01-.34-2.08-.72-3.2-1.13-1.12-.41-2.15-.8-3.09-1.15-.29-.1-.58-.21-.87-.31.04,0,.07,0,.11,0-1.45-.63-2.57-1.2-3.36-1.7-.8-.5-1.48-.93-2.06-1.29-1.01-.79-1.95-1.56-2.82-2.32-.87-.76-1.63-1.5-2.28-2.22-2.31-2.39-3.83-4.24-4.55-5.55.04,0,.07,0,.11,0-1.73-2.76-2.82-4.76-3.25-6Z"/>
          <path class="cls-2" d="m365.36,88.59c-1.16-.29-2.62-.7-4.39-1.25-1.77-.54-3.24-.78-4.39-.71-.29.02-.56.07-.81.16-.25.09-.49.14-.7.15-.72.04-1.32.15-1.79.32-.47.17-1.03.42-1.68.74-.29.45-.62.68-.98.7-.72.04-1.07-.09-1.03-.38.04-.29.23-.61.6-.95.36-.35.8-.69,1.3-1.05.51-.35.9-.54,1.19-.56.5-.24,1.08-.4,1.74-.48.65-.07,1.3-.13,1.95-.17.43-.03,1.25.02,2.44.13,1.19.11,2.48.23,3.85.36,1.37.13,2.64.27,3.8.41,1.16.14,1.84.24,2.06.3.22-.09.63-.08,1.25.03.61.11,1.06.15,1.36.13,2.6-.17,4.95-1.05,7.05-2.64-.14,0-.29.02-.43.03.14-.08.51-.14,1.08-.18.58-.04.94-.06,1.08-.07.36-.02.92-.03,1.68,0,.76.02,1.21.21,1.36.56-.07.76-.14,1.53-.22,2.29.65-.48,1.63-.96,2.93-1.45,1.3-.49,2.69-.91,4.18-1.27,1.48-.36,2.91-.66,4.28-.9,1.37-.24,2.5-.4,3.36-.46,1.01-.07,2.26-.05,3.74.06,1.48.11,2.66.35,3.52.72.65.32,1.54.69,2.66,1.11,1.12.43,1.97.83,2.55,1.23-.07,0-.14.01-.22.02.58.32,1.34.79,2.28,1.41.94.62,1.63,1.2,2.06,1.75.94,1.24,1.73,2.59,2.39,4.06.65,1.47.97,3.04.98,4.7,0,2.39-.54,4.59-1.63,6.62-.65,1.28-1.48,2.37-2.5,3.27-1.01.9-2.11,1.69-3.31,2.35-1.19.67-2.44,1.28-3.74,1.84-1.3.56-2.53,1.1-3.69,1.62,3.25-.09,6.54.25,9.87,1.03,3.32.78,6.03,2.43,8.13,4.96,1.59,1.91,2.82,4.07,3.69,6.47.87,2.4,1.3,4.86,1.3,7.39,0,.8-.16,1.75-.49,2.85-.33,1.11-.63,2.07-.92,2.88-.29.74-.78,1.66-1.46,2.76-.69,1.1-1.28,1.95-1.79,2.56-.22.3-.56.67-1.03,1.1-.47.43-.96.86-1.46,1.3-.51.43-1.01.85-1.52,1.25-.51.4-.9.71-1.19.95-.94.72-1.99,1.33-3.15,1.85-1.16.52-2.24.99-3.25,1.43-1.38.46-2.84.78-4.39.97-1.56.19-3.05.33-4.5.43-3.91.28-7.81.52-11.71.73-3.91.2-7.81.44-11.71.7-1.23.08-2.46.17-3.69.25-1.23.08-2.46.2-3.69.35-3.72.24-7.45.48-11.17.7-.43-.41-.38-.75.16-1.04.54-.28,1.26-.53,2.17-.73.9-.2,1.86-.35,2.87-.45,1.01-.1,1.77-.2,2.28-.31-.25.02-.51.03-.76.05.29-.24.56-.45.81-.65.25-.2.52-.38.81-.54-.07,0-.14,0-.22.01.43-.39.74-.88.92-1.47.18-.59.31-1.14.38-1.65v-53.14c0-.72-.02-1.46-.05-2.22-.04-.76-.09-1.48-.16-2.16-.07-.68-.18-1.09-.33-1.23-.65-.65-1.3-1.29-1.95-1.94Zm17.03,63.83c.58-.04,1.14-.06,1.68-.06.54,0,1.1-.02,1.68-.06,2.93-.21,5.86-.41,8.78-.62,1.88-.13,3.54-.53,4.99-1.17,1.45-.65,3-1.46,4.66-2.45-.04,0-.07,0-.11,0,.58-.4,1.12-.87,1.63-1.42.51-.54.98-1.08,1.41-1.62-.04,0-.07,0-.11,0,1.23-1.53,2.15-3.33,2.77-5.4.61-2.07.92-4.04.92-5.92,0-.58-.06-1.08-.16-1.51-.11-.43-.2-.92-.27-1.5-.07-.5-.13-1.02-.16-1.56-.04-.54-.13-1.06-.27-1.55-.94-2.9-2.49-5.26-4.66-7.09-2.17-1.83-4.74-3.08-7.7-3.73-2.31-.56-4.72-.78-7.21-.68-2.49.11-4.93.24-7.32.4-.11,0-.22.02-.33.02v34.27c0,.29-.04.56-.11.82-.07.26-.11.53-.11.82Zm.33-38.63c3.11,0,5.69-.05,7.75-.16,2.06-.11,3.76-.38,5.1-.8,1.34-.42,2.44-1.11,3.31-2.08.87-.97,1.66-2.34,2.39-4.13.58-1.41.98-2.85,1.19-4.31.22-1.46.33-3.2.33-5.23,0-1.66-.11-3.3-.33-4.91-.22-1.61-.91-3.03-2.06-4.24-.8-.95-1.48-1.52-2.06-1.7-.58-.18-1.48-.36-2.71-.57-.15.01-.34-.01-.6-.07-.25-.05-.49-.07-.7-.06-.51.04-1.03.07-1.57.11-.54.04-1.03.15-1.46.32-.72.27-1.59.58-2.6.94-1.01.36-1.97.81-2.87,1.34-.91.53-1.68,1.15-2.33,1.84-.65.7-.98,1.52-.98,2.45,0,.15.02.27.05.38.04.11.05.23.05.37.04,6.83.07,13.66.11,20.49Zm0-27.33c0,.07,0,.14,0,.22.07-.08.14-.15.22-.23-.07,0-.14,0-.22.01Z"/>
          <path class="cls-2" d="m435.85,150.08c-.79.05-1.61.09-2.44.11-.83.02-1.75.06-2.77.13-1.23.08-2.86.23-4.88.44-2.03.21-3.86.45-5.53.71-.14-.13-.13-.37.05-.71.18-.34.49-.63.92-.88.14-.08.76-.16,1.84-.24.14,0,.29-.04.43-.08.15-.05.29-.07.43-.08,1.01-.14,2.13-.31,3.36-.5,1.23-.19,2.44-.44,3.63-.73,1.19-.3,2.28-.69,3.25-1.19.98-.5,1.72-1.12,2.22-1.88,1.16-3.55,2.48-7.39,3.96-11.53,1.48-4.14,2.95-8.26,4.39-12.36,1.45-4.1,2.85-8,4.23-11.69,1.37-3.7,2.55-6.89,3.53-9.58.97-2.69,1.68-4.74,2.11-6.14.43-1.4.51-1.8.22-1.2-.04,0-.07,0-.11,0,0-.14.04-.18.11-.11.07.07.11.03.11-.12-1.7-3.02-3.4-6.03-5.1-9.04.04,0,.07,0,.11,0-2.17-1.03-3.69-1.7-4.55-2.01-.61-.18-1.23-.36-1.84-.54-1.01-.37-1.79-.63-2.33-.78-.54-.15-1.03-.28-1.46-.4-1.81-.25-3.22-.34-4.23-.27-1.01.07-1.99.31-2.93.73-.25.16-.51.32-.76.48-.8.49-1.52.86-2.17,1.12-.65.26-1.3.23-1.95-.09.22-.01.43-.03.65-.04-1.08-.14-1.45-.37-1.08-.69,1.88-1.36,3.56-2.17,5.04-2.45,1.48-.28,2.91-.35,4.28-.23,1.23,0,2.24.04,3.04.13.79.1,1.59.19,2.39.28.58.07,1.16.15,1.74.22.36.05.79.08,1.3.08.51,0,.94.07,1.3.19.54.08,1.08.15,1.63.23.83.1,1.66.19,2.49.29-.18.01-.36.02-.54.03,1.08.08,2.1.03,3.04-.17,1.01-.49,1.83-.9,2.44-1.22.61-.32,1.12-.57,1.52-.73.4-.16.72-.27.98-.32.25-.05.56-.08.92-.1,2.39-.63,3.58-.47,3.58.47-.07,0-.14,0-.22.01,10.38,20.89,20.75,41.89,31.13,63.09-.04,0-.07,0-.11,0,1.01,1.64,1.7,2.7,2.06,3.16.36.46.61.77.76.91.72.35,1.45.7,2.17,1.05.29.14.69.21,1.19.2.04,0,.07,0,.11,0,.22,0,.4-.04.54-.12,2.24-.03,3.36.04,3.36.18-.22,0-.43,0-.65,0,.07.07.09.27.05.6-.04.33-.09.53-.16.6-.29.29-1.16.44-2.6.46-.72.15-1.63.17-2.71.04.04,0,.07,0,.11,0-.15,0-.25-.01-.33-.05-.07-.03-.18-.05-.33-.05-.65.01-1.41,0-2.28-.01-.87-.02-1.73-.06-2.6-.11-2.42.05-4.84.12-7.27.19-.43.01-.85,0-1.25-.02-.4-.02-.78-.03-1.14-.02-1.59.05-3.18.11-4.77.16-.36.01-.7.05-1.03.09-.32.05-.63.08-.92.09-.58.02-1.05.08-1.41.16-1.23.05-2.46.1-3.69.15-1.01-.1-1.37-.27-1.08-.5.29-.23.83-.58,1.63-1.05,1.19-.05,2.39-.1,3.58-.15.58-.02,1.34-.23,2.28-.63-.04,0-.07,0-.11,0,.11-.11.22-.23.33-.34.43-.23.72-.64.87-1.22.36-.52.56-1.01.6-1.48.03-.47-.13-1.1-.49-1.88-4.05-8.02-8.1-16.02-12.15-24.01-5.31.25-10.63.53-15.94.84-2.1,5.69-3.72,10.11-4.88,13.25-1.16,3.14-2.03,5.49-2.6,7.05-.58,1.55-.94,2.55-1.08,3-.15.44-.25.77-.33,1h.11c0,.14-.04.21-.11.22-.07,0-.11.08-.11.22-.15.66-.23,1.1-.27,1.32-.04.22-.02.51.05.86,0,.43-.02.8-.05,1.09-.04.29-.09.4-.16.34.79.6,1.61,1.04,2.44,1.31.83.27,1.59.46,2.28.57.69.1,1.46.17,2.33.19.65.25,1.3.5,1.95.75,0,.15-.07.29-.22.45-.15.15-.45.26-.92.33-.47.06-1.32.06-2.55-.01-.36.02-.7.04-1.03.06-.33.02-.67,0-1.03-.05.04,0,.07,0,.11,0-.43-.04-.89-.07-1.36-.08-.47,0-.96,0-1.46.04-.43.03-.79.03-1.08.01-.29-.02-.6-.02-.92,0-.33.02-.72.05-1.19.08-.47.03-1.14.07-2.01.13Zm21.37-51.92c-2.1,5.57-4.19,11.14-6.29,16.72,2.24-.13,4.54-.25,6.89-.38,2.35-.12,4.54-.27,6.56-.44-2.39-5.31-4.77-10.61-7.16-15.91Z"/>
          <path class="cls-2" d="m548.97,87.27c0-.22-.25-.68-.76-1.4-.51-.72-1.07-1.47-1.68-2.27-.61-.79-1.43-1.83-2.44-3.12-.14-.15-.45-.33-.92-.54-.47-.2-.67-.34-.6-.41-4.59-.23-9.18-.41-13.77-.54.72.17,1.08.47,1.08.9v1.84c0,9.33,0,17.28,0,23.86,0,6.58,0,12.13,0,16.65,0,4.52.02,8.14.05,10.85.04,2.71.05,4.81.05,6.29,0,1.48,0,2.49,0,3.04,0,.54,0,.92,0,1.14-.04,0-.07,0-.11,0,.04.4.07.8.11,1.2.29.3.52.58.71.84.18.26.23.35.16.28.36.23.77.39,1.25.47.47.09.99.21,1.57.38,2.06.65,4.12,1.32,6.18,1.99-.07.32-.14.64-.22.97-.14,0-.87.07-2.17.23-6.83-.4-13.67-.68-20.5-.85-.58,0-1.12,0-1.63.04-.51.03-.98.05-1.41.04-.51,0-1,0-1.46,0-.47,0-.89.03-1.25.11-.43,0-1.14.02-2.11.05-.97.04-1.57.06-1.79.06.11,0,.22,0,.33,0-.47-.5-.94-1.01-1.41-1.51,1.92-.51,3.83-1.02,5.75-1.52-.04,0-.07,0-.11,0,.36-.07.74-.14,1.14-.21.4-.07.92-.28,1.57-.64.22-.07.44-.47.65-1.19.22-.72.33-2.45.33-5.2v-59.32c0-.29.43-.5,1.3-.64-6.04.08-12.07.25-18.11.47-1.55,2.12-3.11,4.24-4.66,6.37-.43,0-.61.01-.54.01.07,0,.04-.04-.11-.11-.15-.07-.29-.16-.43-.26-.14-.11-.22-.23-.22-.38,0-.07.2-.58.6-1.53.4-.95.83-2,1.3-3.17.47-1.16.94-2.24,1.41-3.22.47-.98.78-1.55.92-1.7,16.92-.2,33.84.11,50.76,1.21,1.19,3.43,2.39,6.87,3.58,10.31-.8.06-1.59.11-2.39.17Zm-8.89,62.42s-.07,0-.11,0c-.11,0-.22-.01-.33-.02.29.16.43.17.43.02Z"/>
          <path class="cls-2" d="m567.84,143.34c0-.22,0-.56,0-1.03,0-.47.02-1.14.05-2,.04-.86.05-2.02.05-3.47,0-1.45,0-3.25,0-5.42v-46.09c-.15-1.1-.62-1.98-1.41-2.63-.8-.65-1.7-1.17-2.71-1.56-1.01-.38-2.04-.63-3.09-.76-1.05-.12-1.94-.22-2.66-.27-1.3-.25-2.15-.4-2.55-.47-.4-.07-.63-.06-.7,0,.14-.13.47-.42.98-.85.5-.43,1.01-.63,1.52-.59.14.01.29.02.44.03.14.01.29.04.43.09.14.05.4.09.76.12.43.04,1.05.09,1.84.15.79.07,1.7.11,2.71.13,1.01.09,2.02.19,3.04.28.58.06,1.17.1,1.8.12.62.03,1.22.07,1.8.13-.04,0-.07,0-.11-.01,1.68.17,2.95.3,3.83.36.88.06,1.53.12,1.97.17.44.05.69.08.76.09.07,0,.18.02.33.04,1.68-.09,2.7.08,3.06.48.07.08.15.25.22.52.07.26.15.78.22,1.55.07.77.13,1.9.16,3.38.04,1.49.07,3.48.11,5.98.04,2.5.07,5.63.11,9.39.04,3.76.06,8.29.06,13.56v34.6c2.06.66,4.12,1.33,6.18,2.02.33.52.65,1.03.98,1.55-.07-.01-.42-.06-1.03-.15-.61-.09-1.27-.18-1.95-.27-.69-.09-1.61-.22-2.77-.37-.43.02-1.4-.06-2.89-.21-1.49-.15-3.19-.32-5.08-.49-1.9-.18-3.81-.38-5.73-.61-1.93-.23-3.56-.46-4.9-.69-1.34-.23-2.19-.47-2.55-.71-.36-.25.11-.5,1.41-.74.87-.07,1.74-.13,2.6-.2.07.08.14.12.22.13.18.02.36.03.54.05.25-.23.51-.46.76-.69.07-.06.16-.18.27-.35.11-.17.34-.63.71-1.4.14-.42.22-1.17.22-2.26v-.65Z"/>
        </g>
        <g>
          <path class="cls-2" d="m215.92,231.54v-1.03c0-.47.02-1.14.05-2,.03-.86.05-2.02.05-3.46,0-1.45,0-3.25,0-5.42,0-15.51,0-31.02,0-46.53,0-1.08-.16-1.9-.49-2.44-.33-.54-.67-.94-1.03-1.2-.15-.16-.2-.22-.16-.18.04.04.09.06.16.07.25.03.51.06.76.09-.07,0-.13-.05-.16-.13-.04-.08-.09-.12-.16-.13-.07,0-.22-.04-.43-.1-.22-.06-.36-.1-.43-.1-.69-.19-1.37-.38-2.06-.57.07,0,.14.02.22.03-.58-.14-1.07-.24-1.46-.28-.4-.05-1.32-.16-2.76-.34-.87-.04-1.54-.16-2.01-.37-.47-.21-.73-.42-.76-.64-.03-.22.11-.4.44-.54.33-.14.85-.16,1.57-.07.14.02.29.04.43.06.14.02.29.06.43.11.14.06.4.1.76.15.43.05.74.09.92.11.18.02.78.06,1.79.11,1.01.12,2.03.24,3.04.36.58.07,1.15.11,1.74.14.58.03,1.16.07,1.74.14,3.18.27,6.32.48,9.43.61,3.11.14,5.95.26,8.51.38,2.56.12,4.77.22,6.62.3,1.84.08,3.13.21,3.85.4,1.01.21,2.15.43,3.42.68,1.27.25,2.62.7,4.07,1.34,1.23.56,2.46,1.16,3.69,1.79,1.23.63,2.46,1.37,3.69,2.2,1.23.84,2.46,1.73,3.69,2.67,1.23.94,2.31,1.93,3.25,2.97,1.01,1.11,1.97,2.18,2.87,3.22.9,1.03,1.64,2.02,2.22,2.98.79,1.39,1.48,2.69,2.06,3.89.58,1.2,1.12,2.46,1.63,3.77.11.29.22.58.33.87.43,1.24.79,2.33,1.08,3.27.29.95.47,1.71.54,2.28.51,3.04.72,5.29.65,6.73-.04-.04-.07-.07-.11-.11-.07,1.66-.16,3.13-.27,4.39-.11,1.26-.31,2.4-.6,3.41-.36,1.51-.83,3.01-1.41,4.48-.58,1.47-1.16,2.79-1.74,3.93-.65,1.29-1.32,2.4-2.01,3.32-.69.93-1.43,1.82-2.22,2.67-.72.78-1.46,1.54-2.22,2.28-.76.74-1.54,1.5-2.33,2.27-.44.49-.96.95-1.57,1.36-.62.42-1.64.92-3.09,1.53.04.04.07.07.11.11-1.52.89-3.72,1.6-6.62,2.12-2.89.52-5.75.95-8.57,1.3-6.87-.18-12.27-.46-16.21-.72-3.94-.26-6.9-.5-8.89-.66-1.99-.16-3.31-.31-3.96-.41-.65-.11-1.12-.18-1.41-.21-.65,0-1.26.02-1.84.06-.58.04-1.05,0-1.41-.11-.07,0-.36-.04-.87-.1-.51-.06-1.05-.14-1.63-.25-.58-.11-1.34-.22-2.28-.34-.43-.05-.83-.21-1.19-.48-.36-.26-.61-.49-.76-.7-.15-.2-.11-.36.11-.47.22-.12.65-.09,1.3.06.47-.08.94-.17,1.41-.26,1.27.16,2.53.31,3.8.46.65.22,1.17.03,1.57-.58.39-.61.71-1.15.92-1.63.15-.42.22-1.17.22-2.25v-.65Zm28.85,5.96c1.16-.15,2.93-1.05,5.31-2.73.72-.4,1.48-.97,2.28-1.73.79-.75,1.66-1.62,2.6-2.59.72-.76,1.43-1.6,2.12-2.51.69-.91,1.43-2.07,2.22-3.49.8-1.34,1.52-2.71,2.17-4.09.65-1.39,1.15-2.72,1.52-4.01.43-1.65.79-3.14,1.08-4.46.29-1.33.5-2.6.65-3.83.22-1.58.4-2.93.54-4.05.15-1.12.22-2.22.22-3.3,0-1.81-.05-3.42-.16-4.83-.11-1.41-.34-2.63-.71-3.65-.51-1.82-1.01-3.38-1.52-4.66-.51-1.28-.97-2.33-1.41-3.14-1.52-2.58-2.71-4.44-3.58-5.56-1.37-1.65-2.86-2.98-4.45-3.99-1.01-.63-2.01-1.18-2.98-1.67-.98-.48-1.97-.83-2.98-1.03-1.88-.54-3.87-.77-5.97-.69-4.16-.1-8.31-.23-12.47-.42v60.3c.07,1.02.27,2.12.6,3.31.33,1.19.2,2.12-.38,2.79,3.62.46,6.83.62,9.65.49,2.82-.13,4.7-.28,5.64-.44Zm32.32-42.93c.11.29.22.58.33.87-.04-.25-.07-.51-.11-.76-.07-.04-.14-.07-.22-.11Z"/>
          <path class="cls-2" d="m290.2,235.21v-1.03c0-.47.02-1.14.05-2.01.04-.87.05-2.02.05-3.47,0-1.45,0-3.25,0-5.42v-46.09c-.14-1.08-.62-1.91-1.41-2.49-.8-.58-1.7-1.01-2.71-1.31-1.01-.29-2.05-.46-3.09-.5-1.05-.04-1.93-.07-2.66-.08-1.3-.16-2.15-.26-2.55-.3-.4-.04-.63-.03-.71.04.14-.14.47-.44.98-.91.51-.46,1.01-.69,1.52-.69.14,0,.29,0,.43,0,.14,0,.29.02.43.06.15.04.4.06.76.06.43,0,1.05,0,1.84.02.79,0,1.7-.02,2.71-.09,1.01,0,2.02,0,3.04,0,.58,0,1.18-.02,1.8-.05.62-.04,1.22-.06,1.8-.06-.04,0-.07,0-.11,0,1.68,0,2.95-.03,3.83-.08.87-.04,1.53-.07,1.97-.07.44,0,.69,0,.76,0,.07,0,.18,0,.33,0,1.68-.31,2.7-.29,3.06.07.07.07.14.23.22.48.07.25.15.76.22,1.52.07.76.13,1.88.16,3.36.04,1.48.07,3.47.11,5.96.03,2.49.07,5.62.11,9.38.04,3.76.06,8.28.06,13.56v34.6c2.06.37,4.12.73,6.18,1.08.33.46.65.93.98,1.39-.07,0-.42,0-1.03.02-.61.01-1.27.03-1.95.04-.69.01-1.61.03-2.77.05-.43.08-1.4.15-2.89.21-1.49.06-3.19.11-5.08.16-1.9.05-3.81.06-5.73.03-1.93-.03-3.56-.11-4.9-.22-1.34-.11-2.19-.28-2.55-.5-.36-.22.11-.5,1.41-.86.87-.14,1.74-.28,2.6-.42.07.07.15.11.22.11.18,0,.36,0,.54,0,.25-.25.51-.51.76-.76.07-.07.16-.2.27-.38.11-.18.34-.67.71-1.46.15-.43.22-1.19.22-2.28v-.65Z"/>
          <path class="cls-2" d="m328.81,241.03c-.8.03-1.61.04-2.44.04-.83,0-1.75,0-2.77.04-1.23.04-2.86.13-4.88.26-2.02.13-3.87.29-5.53.48-.14-.14-.13-.38.05-.71.18-.33.49-.61.92-.84.15-.07.76-.13,1.84-.16.14,0,.29-.03.43-.07.15-.04.29-.06.43-.07,1.01-.1,2.13-.22,3.36-.37,1.23-.15,2.44-.35,3.63-.61,1.19-.26,2.28-.62,3.25-1.09.98-.47,1.72-1.08,2.22-1.82,1.16-3.51,2.48-7.33,3.96-11.44,1.48-4.11,2.94-8.2,4.39-12.28,1.45-4.08,2.86-7.95,4.23-11.63,1.37-3.68,2.55-6.86,3.52-9.55.97-2.69,1.68-4.73,2.11-6.12.43-1.39.5-1.8.22-1.2-.04,0-.07,0-.11,0,0-.14.04-.18.11-.11.07.07.11.03.11-.11-1.7-3.02-3.4-6.05-5.1-9.08.04,0,.07,0,.11,0-2.17-1.05-3.69-1.74-4.55-2.07-.61-.19-1.23-.38-1.84-.57-1.01-.39-1.79-.66-2.33-.82-.54-.16-1.03-.3-1.46-.43-1.81-.29-3.22-.41-4.23-.38-1.01.04-1.99.26-2.93.65-.25.15-.51.31-.76.46-.8.46-1.52.81-2.17,1.05-.65.24-1.3.19-1.95-.15.22,0,.43-.01.65-.02-1.08-.18-1.45-.42-1.08-.73,1.88-1.29,3.56-2.05,5.04-2.28,1.48-.23,2.91-.27,4.28-.1,1.23.03,2.24.09,3.04.21.8.11,1.59.22,2.39.34.58.08,1.16.17,1.74.25.36.06.79.09,1.3.11.51.01.94.08,1.3.21.54.08,1.09.17,1.63.25.83.11,1.66.21,2.49.32-.18,0-.36.02-.54.03,1.08.09,2.1.05,3.04-.15,1.01-.48,1.82-.89,2.44-1.21.61-.32,1.12-.56,1.52-.73.4-.16.72-.27.98-.32.25-.05.56-.08.92-.1,2.39-.63,3.58-.48,3.58.46-.07,0-.15,0-.22.01,10.38,20.84,20.75,41.59,31.13,62.32-.04,0-.07,0-.11,0,1.01,1.6,1.7,2.62,2.06,3.06.36.45.61.74.76.87.72.31,1.45.63,2.17.94.29.13.69.17,1.19.14.04,0,.07,0,.11,0,.22-.01.4-.06.54-.14,2.24-.15,3.36-.15,3.36,0-.22.01-.43.03-.65.04.07.07.09.26.05.59-.04.33-.09.53-.16.61-.29.31-1.16.51-2.6.61-.73.19-1.63.25-2.71.18.04,0,.07,0,.11,0-.15,0-.25,0-.33-.03-.08-.03-.18-.04-.33-.03-.65.04-1.41.08-2.28.09-.87.02-1.73.02-2.6,0-2.42.16-4.84.31-7.27.46-.43.03-.85.04-1.25.02-.4-.01-.78,0-1.14.02-1.59.1-3.18.2-4.77.29-.36.02-.7.06-1.03.12-.32.06-.63.09-.92.11-.58.03-1.05.1-1.41.19-1.23.07-2.46.15-3.69.22-1.01-.09-1.37-.25-1.08-.48.29-.23.83-.59,1.63-1.07,1.19-.07,2.39-.14,3.58-.21.58-.03,1.34-.26,2.28-.68-.04,0-.07,0-.11,0,.11-.12.22-.23.33-.35.43-.24.72-.66.87-1.25.36-.53.56-1.03.6-1.5.04-.47-.13-1.09-.49-1.87-4.05-7.92-8.1-15.86-12.15-23.8-5.31.3-10.63.58-15.94.83-2.1,5.67-3.72,10.06-4.88,13.18-1.16,3.13-2.03,5.46-2.6,7-.58,1.54-.94,2.53-1.08,2.97-.15.44-.26.77-.33.99.04,0,.07,0,.11,0,0,.15-.04.22-.11.22-.07,0-.11.08-.11.22-.14.66-.24,1.09-.27,1.31-.04.22-.02.51.05.87,0,.43-.02.8-.05,1.09-.04.29-.09.4-.16.33.79.62,1.61,1.07,2.44,1.36.83.29,1.59.49,2.28.61.69.11,1.46.19,2.33.22.65.26,1.3.52,1.95.78,0,.15-.07.29-.22.44-.15.15-.45.26-.92.31-.47.06-1.32.04-2.55-.05-.36.02-.71.03-1.03.05-.33.01-.67,0-1.03-.06.04,0,.07,0,.11,0-.43-.05-.88-.09-1.36-.1-.47-.02-.96-.01-1.46,0-.43.02-.8.02-1.08,0-.29-.02-.6-.03-.92-.02-.32.01-.72.03-1.19.05-.47.02-1.14.04-2.01.08Zm21.37-51.61c-2.1,5.57-4.19,11.13-6.29,16.69,2.24-.11,4.54-.22,6.89-.35,2.35-.12,4.53-.28,6.56-.46-2.39-5.29-4.77-10.58-7.16-15.88Z"/>
          <path class="cls-2" d="m406.24,170.23c-1.16-.28-2.62-.69-4.39-1.23-1.77-.53-3.24-.76-4.39-.69-.29.02-.56.08-.81.16-.25.09-.49.14-.71.15-.72.05-1.32.16-1.79.34-.47.18-1.03.43-1.68.76-.29.45-.62.69-.98.71-.72.05-1.07-.07-1.03-.37.04-.29.23-.61.6-.96.36-.35.8-.7,1.3-1.06.51-.36.91-.55,1.19-.57.5-.25,1.08-.41,1.74-.49.65-.08,1.3-.14,1.95-.18.43-.03,1.25,0,2.44.11,1.19.1,2.47.22,3.85.34,1.37.13,2.64.26,3.8.4,1.16.14,1.84.24,2.06.3.22-.09.63-.08,1.25.03.62.11,1.06.15,1.36.13,2.6-.17,4.95-1.05,7.05-2.63-.14,0-.29.02-.43.03.14-.08.51-.14,1.08-.18.58-.04.94-.06,1.09-.07.36-.02.92-.02,1.68,0,.76.02,1.21.21,1.36.56-.07.76-.14,1.53-.22,2.29.65-.48,1.63-.95,2.93-1.44,1.3-.48,2.69-.89,4.18-1.24,1.48-.34,2.91-.63,4.28-.86,1.37-.23,2.5-.37,3.36-.42,1.01-.06,2.26-.03,3.74.1,1.48.13,2.66.39,3.52.77.65.32,1.54.71,2.66,1.15,1.12.44,1.97.86,2.55,1.27-.07,0-.14,0-.22.01.58.33,1.34.81,2.28,1.45.94.64,1.62,1.23,2.06,1.79.94,1.25,1.73,2.62,2.39,4.1.65,1.48.98,3.06.98,4.72,0,2.39-.54,4.58-1.63,6.59-.65,1.26-1.48,2.34-2.49,3.22-1.01.89-2.11,1.65-3.31,2.3-1.19.65-2.44,1.24-3.74,1.78-1.3.55-2.53,1.07-3.69,1.57,3.25-.05,6.54.35,9.87,1.18,3.33.83,6.04,2.54,8.13,5.11,1.59,1.95,2.82,4.13,3.69,6.54.87,2.42,1.3,4.89,1.3,7.42,0,.8-.16,1.74-.49,2.84-.33,1.1-.63,2.05-.92,2.86-.29.74-.78,1.65-1.46,2.73-.69,1.08-1.28,1.93-1.79,2.53-.22.3-.56.66-1.03,1.08-.47.42-.96.84-1.46,1.27-.51.42-1.01.83-1.52,1.22-.51.39-.9.7-1.19.93-.94.7-1.99,1.3-3.15,1.8-1.16.5-2.24.95-3.25,1.37-1.38.44-2.84.74-4.39.9-1.55.16-3.05.29-4.5.37-3.91.23-7.81.44-11.71.61-3.9.18-7.81.39-11.71.65-1.23.08-2.46.16-3.69.24-1.23.08-2.46.2-3.69.35-3.72.25-7.45.49-11.17.74-.43-.4-.38-.75.16-1.04.54-.29,1.26-.53,2.17-.74.9-.2,1.86-.36,2.87-.46,1.01-.1,1.77-.21,2.28-.31-.25.02-.51.03-.76.05.29-.24.56-.45.81-.65.25-.2.52-.38.81-.54-.07,0-.14,0-.22.01.43-.39.74-.88.92-1.47.18-.59.31-1.14.38-1.65v-51.62c0-.29,0-.8,0-1.52,0-.72-.02-1.46-.05-2.22-.04-.76-.09-1.48-.16-2.16-.07-.68-.18-1.09-.33-1.23-.65-.64-1.3-1.29-1.95-1.93Zm17.03,63.84c.58-.04,1.14-.05,1.68-.05.54,0,1.1-.02,1.68-.05,2.93-.19,5.86-.37,8.78-.55,1.88-.12,3.54-.49,4.99-1.12,1.45-.63,3-1.43,4.66-2.39-.04,0-.07,0-.11,0,.58-.39,1.12-.86,1.63-1.39.5-.53.98-1.07,1.41-1.6-.04,0-.07,0-.11,0,1.23-1.52,2.15-3.3,2.76-5.36.61-2.06.92-4.03.92-5.91,0-.58-.05-1.08-.16-1.51-.11-.43-.2-.93-.27-1.5-.07-.5-.13-1.02-.16-1.56-.04-.54-.13-1.06-.27-1.56-.94-2.91-2.49-5.3-4.66-7.16-2.17-1.86-4.74-3.14-7.7-3.83-2.31-.58-4.72-.83-7.21-.75-2.49.09-4.93.2-7.32.36-.11,0-.22.01-.33.02v34.27c0,.29-.04.56-.11.82-.07.26-.11.53-.11.82Zm.33-38.63c3.11.02,5.69-.02,7.75-.11,2.06-.09,3.76-.34,5.1-.75,1.33-.41,2.44-1.09,3.31-2.04.87-.96,1.66-2.32,2.39-4.1.58-1.41.98-2.84,1.19-4.3.22-1.46.33-3.2.33-5.23,0-1.66-.11-3.3-.33-4.91-.22-1.61-.9-3.04-2.06-4.27-.8-.96-1.48-1.54-2.06-1.72-.58-.18-1.48-.38-2.71-.59-.15,0-.34-.01-.6-.07-.25-.06-.49-.08-.7-.07-.51.03-1.03.06-1.57.1-.54.03-1.03.14-1.46.31-.72.26-1.59.57-2.6.92-1.01.35-1.97.79-2.87,1.32-.91.53-1.68,1.14-2.33,1.83-.65.69-.98,1.51-.98,2.45,0,.15.02.27.05.38.03.11.05.23.05.38.04,6.83.07,13.66.11,20.49Zm0-27.33c0,.07,0,.14,0,.22.07-.08.14-.15.22-.23-.07,0-.14,0-.22.01Z"/>
          <path class="cls-2" d="m508.73,229.65c1.88-.02,3.63-.09,5.26-.21,1.63-.12,2.84-.28,3.63-.5,2.42-4.23,4.84-8.46,7.27-12.67.61.11,1.23.23,1.84.34-1.08,5.3-2.17,10.61-3.25,15.92-7.66-.11-14.14-.08-19.41,0-5.28.09-9.65.2-13.12.3-3.47.1-6.16.19-8.08.26-1.92.07-3.35.1-4.28.1-.94,0-1.5-.03-1.68-.1-.18-.06-.27-.13-.27-.21v-17.57c0-3.32,0-6.89,0-10.68,0-3.8.02-7.57.05-11.34.04-3.76.05-7.3.05-10.63v-13.34c-.18-1.01-.36-2.01-.54-3.02-.36-.2-.65-.5-.87-.89-.22-.39-.4-.62-.54-.68-1.55-.22-3.11-.45-4.66-.67-.36.02-.72.03-1.08.05-1.74.08-2.75-.16-3.04-.73-.29-.56-.4-.92-.33-1.07-.04,0-.07,0-.11,0,0-.07.2-.15.6-.25.4-.09.81-.15,1.25-.17.15-.08.27-.1.38-.07.11.03.6.03,1.46-.01,4.16-.19,8.31-.36,12.47-.51.43-.02.87-.03,1.3-.05.72-.1,1.5-.16,2.33-.19.83-.03,1.43,0,1.79.05,1.74-.05,2.67.03,2.82.24-.15,0-.29,0-.44.01.44.57.72.77.87.62v67.89c2.31-.07,4.68-.11,7.1-.13,2.42-.02,4.36-.04,5.8-.06,1.81-.03,3.62-.06,5.42-.08Z"/>
          <path class="cls-2" d="m603.19,200.95c.07,1.46.04,2.75-.11,3.89-.14,1.14-.32,2.27-.54,3.4-.22,1.06-.47,2.09-.76,3.1-.29,1.01-.58,2-.87,2.98-.15.63-.36,1.27-.65,1.92-.29.65-.9,1.57-1.84,2.75.04,0,.07,0,.11.01-.87,1.48-2.32,3.22-4.34,5.23-2.02,2.01-4.16,3.84-6.4,5.48-.72.5-1.66,1.01-2.82,1.51-1.16.5-2.31.99-3.47,1.46-.04.03-.07.07-.11.1-.8.22-1.56.42-2.28.61-.72.19-1.77.41-3.15.66.04,0,.07,0,.11,0-1.45.24-3.15.42-5.1.53-1.95.11-4.05.09-6.29-.05-.72-.05-1.45-.11-2.17-.19-.72-.08-1.45-.18-2.17-.29-3.18-.4-6.22-1.07-9.11-2.02-2.89-.95-5.42-2.11-7.59-3.48-1.66-1.06-2.97-1.99-3.9-2.77-.94-.78-1.74-1.47-2.39-2.06-1.88-2.07-3.4-3.85-4.55-5.35-1.16-1.5-2.1-2.91-2.82-4.22-.72-1.31-1.25-2.36-1.57-3.16-.33-.8-.64-1.56-.92-2.29-.36-1.31-.69-2.57-.98-3.8-.29-1.23-.51-2.35-.65-3.37-.14-1.09-.25-2.19-.33-3.31-.07-1.12-.03-2.4.11-3.85.14-1.08.36-2.35.65-3.79.29-1.44.8-3.1,1.52-4.97-.04,0-.07,0-.11,0,.5-1.22,1.1-2.55,1.79-3.99.69-1.44,1.61-3.05,2.76-4.84,1.59-2.36,3.61-4.64,6.07-6.82.79-.63,1.74-1.29,2.82-1.99,1.08-.69,2.31-1.41,3.69-2.17.86-.48,1.77-.92,2.71-1.32.94-.4,2.13-.86,3.58-1.38,1.66-.65,4.01-1.05,7.05-1.18,1.3-.07,2.64-.13,4.01-.15,1.37-.03,2.78.04,4.23.21,1.52.17,3.04.41,4.55.7,1.52.29,2.93.67,4.23,1.14,1.37.55,2.71,1.09,4.01,1.64,1.3.55,2.42,1.12,3.36,1.72,1.45.93,2.71,1.82,3.8,2.65,1.09.83,2.17,1.78,3.25,2.83,1.09,1.06,2.08,2.03,2.98,2.93.9.9,1.54,1.62,1.9,2.17,1.01,1.35,1.86,2.59,2.55,3.72.69,1.13,1.21,2.08,1.57,2.85-.04,0-.07,0-.11-.01,1.59,3.16,2.64,5.68,3.15,7.56.43,1.58.78,3.16,1.03,4.74.25,1.59.42,3.04.49,4.35Zm-14.21,14.9c.22-.99.4-2.05.54-3.2.14-1.14.18-2.55.11-4.22,0-1.59-.07-3.17-.22-4.74-.15-1.57-.4-3.02-.76-4.36-.43-1.71-.85-3.25-1.25-4.63-.4-1.38-.85-2.64-1.35-3.77-.58-1.5-1.14-2.9-1.68-4.18-.54-1.28-1.1-2.46-1.68-3.52-.87-1.6-1.7-3.01-2.49-4.24-.8-1.23-1.59-2.24-2.39-3.03-2.68-2.76-4.81-4.66-6.4-5.72-2.53-1.56-4.48-2.67-5.86-3.33-1.95-.85-3.87-1.33-5.75-1.43-1.08-.06-2.17-.06-3.25,0-1.08.05-2.13.24-3.15.55-.94.25-1.81.57-2.6.97-.8.4-1.7.91-2.71,1.52-.72.41-1.48.92-2.28,1.54-.79.62-1.7,1.43-2.71,2.41-.51.35-.98.91-1.41,1.69-.43.78-.94,1.67-1.52,2.67-.29.5-.58,1.29-.87,2.36-.29,1.08-.54,2.3-.76,3.67-.15.79-.24,1.66-.27,2.6-.04.94-.06,1.88-.05,2.82,0,.65.02,1.36.05,2.12.03.76.09,1.47.16,2.12.14,1.96.4,3.64.76,5.06.36,1.42.76,2.64,1.19,3.66.36,1.09.78,2.14,1.25,3.13.47.99.89,1.89,1.25,2.69-.14,0-.29,0-.43-.01.4.48.8.96,1.19,1.45.94,2.05,1.56,3.27,1.84,3.64.58,1.03,1.17,2.03,1.79,2.99.61.96,1.03,1.59,1.25,1.89.8,1.04,1.52,1.94,2.17,2.69.65.75,1.23,1.39,1.74,1.92.87.98,1.63,1.83,2.28,2.54.65.72,1.08,1.15,1.3,1.31.8.62,1.48,1.18,2.06,1.68.58.5,1.05.83,1.41,1,2.6,1.81,5.57,2.92,8.89,3.37,2.53.32,5.17.1,7.92-.65,2.75-.75,5.28-2.06,7.59-3.93.51-.31,1.01-.9,1.52-1.75.5-.85,1.05-1.9,1.63-3.15.36-.76.69-1.66.98-2.72.29-1.05.58-2.22.87-3.49.04,0,.07,0,.11.01Zm.65-43.2c.29.32.51.53.65.61-.14-.2-.29-.39-.43-.59-.07,0-.15-.02-.22-.02Z"/>
        </g>
        <path class="cls-2" d="m640.54,223.63c-2.53-1.5-5.6-2.4-8.29-3.62,3.39-2,9.44-5.68,13.21-2.45,2.59,2.22.68,4.81-.5,8.27"/>
        <path class="cls-2" d="m289.76,46.7c0,4.37-2.21,14.97-.03,18.6,3.07-4.26,7.46-10.72,7.55-16.39"/>
        <path class="cls-2" d="m221.2,287.33c2.17-4.79.31-10.9,5.29-14.58,3.55,3.64.34,10.25,2.67,14.14"/>
      </g>
    </g>
  </g>
</svg>