<svg id="Layer_2" data-name="Layer 2" xmlns="http://www.w3.org/2000/svg" viewBox="0 0 336.19 107.26"><defs><style>.cls-2,.cls-3{fill:#845e33;stroke-width:0}.cls-3{fill:#442015}</style></defs><g id="Layer_1-2" data-name="Layer 1"><path class="cls-2" d="M1.47 1.47h333.26v104.32H1.47z"/><path class="cls-2" transform="rotate(90 168.1 53.63)" d="M126.29-102.65h83.61V209.9h-83.61z"/><path fill="#714525" stroke="#442015" stroke-linejoin="round" stroke-width="2.93" d="M1.47 1.47h333.26v104.32H1.47z"/><path transform="rotate(90 168.1 53.63)" fill="#dfb980" stroke-width="0" d="M126.29-102.65h83.61V209.9h-83.61z"/><path class="cls-3" d="M101.92 53.27c.03.6.01 1.13-.04 1.61-.06.48-.13.96-.22 1.43-.09.45-.19.89-.31 1.32-.12.43-.24.86-.36 1.28-.06.27-.15.54-.27.83-.12.28-.37.69-.76 1.23h.04c-.36.66-.96 1.45-1.79 2.37-.84.93-1.72 1.78-2.64 2.55-.3.24-.69.49-1.16.74-.48.25-.96.5-1.43.74l-.04.04c-.33.12-.64.23-.94.34-.3.1-.73.23-1.3.38h.04c-.6.15-1.3.28-2.1.38s-1.67.16-2.6.16c-.3 0-.6 0-.9-.02-.3-.01-.6-.04-.9-.07-1.31-.09-2.57-.31-3.76-.65s-2.24-.78-3.13-1.32c-.69-.42-1.22-.78-1.61-1.1-.39-.31-.72-.59-.98-.83-.78-.84-1.4-1.56-1.88-2.17-.48-.61-.87-1.19-1.16-1.72-.3-.54-.51-.97-.65-1.3-.13-.33-.26-.64-.38-.94-.15-.54-.28-1.06-.4-1.57s-.21-.97-.27-1.39c-.06-.45-.1-.9-.13-1.37-.03-.46-.02-.99.04-1.59.06-.45.15-.97.27-1.57.12-.6.33-1.28.63-2.06h-.04c.21-.51.45-1.06.74-1.66.28-.6.66-1.27 1.14-2.01.66-.99 1.49-1.94 2.51-2.87.33-.27.72-.55 1.16-.85.45-.3.95-.61 1.52-.94.36-.21.73-.4 1.12-.58.39-.18.88-.39 1.48-.63.69-.3 1.66-.51 2.91-.63.54-.06 1.09-.11 1.66-.16.57-.04 1.15-.05 1.75-.02.63.03 1.25.08 1.88.16.63.08 1.21.19 1.75.34.57.18 1.12.36 1.66.54.54.18 1 .37 1.39.58.6.33 1.12.64 1.57.94.45.3.9.64 1.34 1.03s.86.75 1.23 1.07c.37.33.63.6.78.81.42.51.77.98 1.05 1.41.28.43.5.8.65 1.1h-.04c.66 1.22 1.09 2.21 1.3 2.96.18.63.32 1.26.43 1.9s.17 1.23.2 1.77zm-5.86 6.85c.09-.42.16-.87.22-1.34.06-.48.07-1.06.04-1.75 0-.66-.03-1.31-.09-1.95-.06-.64-.16-1.23-.31-1.77-.18-.69-.35-1.3-.51-1.86-.16-.55-.35-1.05-.56-1.5-.24-.6-.47-1.15-.69-1.66-.22-.51-.46-.97-.69-1.39-.36-.63-.7-1.18-1.03-1.66a6.67 6.67 0 00-.98-1.16c-1.1-1.04-1.99-1.76-2.64-2.15-1.04-.57-1.85-.97-2.42-1.21-.81-.3-1.6-.45-2.37-.45-.45 0-.9.02-1.34.07-.45.04-.88.14-1.3.29-.39.12-.75.27-1.07.45-.33.18-.7.4-1.12.67-.3.18-.61.4-.94.67-.33.27-.7.61-1.12 1.03-.21.15-.4.39-.58.72-.18.33-.39.7-.63 1.12-.12.21-.24.54-.36.98-.12.45-.22.96-.31 1.52-.06.33-.1.69-.11 1.07-.02.39-.02.78-.02 1.16 0 .27 0 .56.02.87.01.31.04.6.07.87.06.81.16 1.5.31 2.08.15.58.31 1.08.49 1.5.15.45.32.87.51 1.28.19.4.37.77.52 1.1h-.18l.49.58c.39.84.64 1.33.76 1.48.24.42.48.82.74 1.21.25.39.43.64.51.76.33.42.63.78.9 1.07.27.3.51.55.72.76.36.39.67.72.94 1.01.27.28.45.46.54.51.33.24.61.46.85.65s.43.32.58.38c1.07.69 2.3 1.08 3.67 1.16 1.04.06 2.13-.11 3.27-.51 1.13-.4 2.18-1.04 3.13-1.9.21-.15.42-.41.63-.78.21-.37.43-.83.67-1.37.15-.33.28-.72.4-1.16.12-.45.24-.94.36-1.48h.04zm.27-17.86c.12.12.21.19.27.22l-.18-.22h-.09zM128.78 43.56c.27.51.45.92.56 1.23.1.31.19.6.25.87.09.48.15.89.18 1.23.03.34.04.67.04.96-.03.42-.07.8-.11 1.14-.04.34-.14.72-.29 1.14-.15.57-.41 1.16-.78 1.79-.37.63-.8 1.23-1.28 1.81-.48.58-.99 1.1-1.54 1.54-.55.45-1.1.78-1.63.99-.36.15-.79.27-1.3.36-.51.09-1.03.17-1.57.22-.39.06-.81.1-1.25.13-.45.03-.91.06-1.39.09-.45 0-.86-.02-1.23-.07-.37-.04-.74-.1-1.1-.16-.48-.09-.93-.18-1.37-.27-.43-.09-.77-.19-1.01-.31l-.85-.45v8.19c0 .48 0 .92-.02 1.32s-.04.68-.07.83l.31.85 3.27.9.09.54-10.97-.09h-1.97l.04-.54 2.46-.4.63-.63c.06-.06.22-.42.49-1.07h-.04c.06-.18.1-.38.13-.6s.07-.54.13-.96c.03-.27.04-.67.04-1.21V41.89c0-.63-.05-1.04-.16-1.25a.943.943 0 00-.43-.45c-.18-.12-.34-.22-.47-.29-.13-.07-.25-.13-.34-.16-.24-.06-.33-.1-.27-.13s0-.06-.18-.09c-.69-.12-1.22-.21-1.59-.27a6.6 6.6 0 01-.85-.18c-.19-.06-.35-.11-.47-.16-.12-.04-.27-.1-.45-.16-.15-.09-.25-.13-.31-.13s-.07-.03-.04-.09c.09-.18.14-.25.16-.22.01.03.2.09.56.18.36.09 1 .19 1.92.29.92.11 2.34.14 4.25.11l7.66-.13c.24-.03.47-.05.69-.07.22-.01.45-.05.69-.11.15 0 .31 0 .47-.02.16-.01.32-.02.47-.02.21-.03.44-.05.69-.07.25-.01.5-.02.74-.02.87 0 1.52.06 1.97.18h-.04c1.49.3 2.77.88 3.83 1.75s1.93 1.93 2.62 3.18zm-4.66 4.61c.03-.81-.04-1.66-.2-2.55-.16-.9-.43-1.69-.78-2.37-.54-.98-1-1.67-1.39-2.06-.72-.69-1.22-1.1-1.52-1.25-.6-.27-1.03-.45-1.3-.54-.27-.09-.59-.13-.96-.13s-.91.04-1.61.11c-.7.08-1.77.13-3.2.16l.04.18-.09 13.61c0 .36 0 .58.02.65.01.08.05.14.11.2s.1.09.11.09-.02.03-.11.09c.27.15.48.28.63.4.15.12.29.23.43.34s.28.2.43.29c.15.09.36.19.63.31h-.04c.57.21 1.17.33 1.81.36.64.03 1.25 0 1.81-.09h.16c.07 0 .14-.01.2-.04h-.04c.12-.03.26-.07.43-.13.16-.06.4-.18.69-.36.15-.09.33-.16.54-.22.21-.06.48-.24.81-.54.21-.18.58-.7 1.12-1.57.27-.42.55-1.16.85-2.24.3-.83.45-1.73.45-2.69zM154.11 42.8c0-.09-.1-.28-.31-.56a57.8 57.8 0 00-.69-.9c-.25-.31-.59-.72-1.01-1.23-.06-.06-.19-.13-.38-.2s-.28-.13-.25-.16h-5.69c.3.06.45.18.45.36v17.48c0 1.87 0 3.36.02 4.48.01 1.12.02 1.99.02 2.6v1.72h-.04l.04.49c.12.12.22.23.29.34.07.1.1.14.07.11.15.09.32.15.51.18s.41.07.65.13l2.55.72-.09.4c-.06 0-.36.04-.9.13l-8.46-.13c-.24 0-.46 0-.67.02-.21.02-.4.02-.58.02h-.6c-.19 0-.37.02-.51.04-.18 0-.47 0-.87.02s-.65.02-.74.02h.13l-.58-.63 2.37-.63h-.04c.15-.03.31-.06.47-.09.16-.03.38-.12.65-.27.09-.03.18-.19.27-.49.09-.3.13-1.01.13-2.15V40.13c0-.12.18-.21.54-.27l-7.48.18-1.93 2.6h-.22c.03 0 .02-.01-.04-.04s-.12-.07-.18-.11a.192.192 0 01-.09-.16c0-.03.08-.24.25-.63.16-.39.34-.82.54-1.3.19-.48.39-.92.58-1.32.19-.4.32-.63.38-.69l20.95.09 1.48 4.16-.98.13zm-3.67 25.96h-.18c.12.06.18.06.18 0zM162.8 65.31v-.42c0-.19 0-.47.02-.83.01-.36.02-.83.02-1.43V41.37c-.06-.45-.25-.79-.58-1.03-.33-.24-.7-.42-1.12-.54-.42-.12-.84-.19-1.28-.2-.43-.01-.8-.02-1.1-.02-.54-.06-.89-.1-1.05-.11-.16-.01-.26 0-.29.02.06-.06.19-.19.4-.38.21-.19.42-.29.63-.29h.18c.06 0 .12 0 .18.02s.16.02.31.02h.76c.33 0 .7-.01 1.12-.04h1.25c.24 0 .49 0 .74-.02.26-.01.5-.02.74-.02h-.05c.69 0 1.22 0 1.58-.02.36-.01.63-.02.81-.02h.45c.69-.12 1.11-.1 1.26.04.03.03.06.1.09.2.03.11.06.31.09.63.03.31.05.78.07 1.39.02.61.03 1.43.05 2.46.01 1.03.03 2.32.04 3.87.02 1.55.02 3.42.02 5.6v14.28l2.55.49.4.58h-2.37c-.18.03-.58.05-1.19.07-.62.01-1.32.03-2.1.04-.78.02-1.57.02-2.37 0-.8-.01-1.47-.04-2.02-.09s-.9-.11-1.05-.2c-.15-.09.04-.21.58-.36l1.07-.18s.06.04.09.04h.22l.31-.31s.07-.08.11-.16c.04-.07.14-.28.29-.6.06-.18.09-.49.09-.94v-.27zM204.97 53.27c.03.6.01 1.13-.04 1.61-.06.48-.13.96-.22 1.43-.09.45-.19.89-.31 1.32-.12.43-.24.86-.36 1.28-.06.27-.15.54-.27.83-.12.28-.37.69-.76 1.23h.04c-.36.66-.96 1.45-1.79 2.37-.84.93-1.72 1.78-2.64 2.55-.3.24-.69.49-1.16.74-.48.25-.96.5-1.43.74l-.04.04c-.33.12-.64.23-.94.34-.3.1-.73.23-1.3.38h.04c-.6.15-1.3.28-2.1.38s-1.67.16-2.6.16c-.3 0-.6 0-.9-.02-.3-.01-.6-.04-.9-.07-1.31-.09-2.57-.31-3.76-.65s-2.24-.78-3.13-1.32c-.69-.42-1.22-.78-1.61-1.1-.39-.31-.72-.59-.98-.83-.78-.84-1.4-1.56-1.88-2.17-.48-.61-.87-1.19-1.16-1.72-.3-.54-.51-.97-.65-1.3-.13-.33-.26-.64-.38-.94-.15-.54-.28-1.06-.4-1.57s-.21-.97-.27-1.39c-.06-.45-.1-.9-.13-1.37-.03-.46-.02-.99.04-1.59.06-.45.15-.97.27-1.57.12-.6.33-1.28.63-2.06h-.04c.21-.51.45-1.06.74-1.66.28-.6.66-1.27 1.14-2.01.66-.99 1.49-1.94 2.51-2.87.33-.27.72-.55 1.16-.85.45-.3.95-.61 1.52-.94.36-.21.73-.4 1.12-.58.39-.18.88-.39 1.48-.63.69-.3 1.66-.51 2.91-.63.54-.06 1.09-.11 1.66-.16.57-.04 1.15-.05 1.75-.02.63.03 1.25.08 1.88.16.63.08 1.21.19 1.75.34.57.18 1.12.36 1.66.54.54.18 1 .37 1.39.58.6.33 1.12.64 1.57.94.45.3.9.64 1.34 1.03s.86.75 1.23 1.07c.37.33.63.6.78.81.42.51.77.98 1.05 1.41.28.43.5.8.65 1.1h-.04c.66 1.22 1.09 2.21 1.3 2.96.18.63.32 1.26.43 1.9s.17 1.23.2 1.77zm-5.86 6.85c.09-.42.16-.87.22-1.34.06-.48.07-1.06.04-1.75 0-.66-.03-1.31-.09-1.95-.06-.64-.16-1.23-.31-1.77-.18-.69-.35-1.3-.51-1.86-.16-.55-.35-1.05-.56-1.5-.24-.6-.47-1.15-.69-1.66-.22-.51-.46-.97-.69-1.39-.36-.63-.7-1.18-1.03-1.66a6.67 6.67 0 00-.98-1.16c-1.1-1.04-1.99-1.76-2.64-2.15-1.04-.57-1.85-.97-2.42-1.21-.81-.3-1.6-.45-2.37-.45-.45 0-.9.02-1.34.07-.45.04-.88.14-1.3.29-.39.12-.75.27-1.07.45-.33.18-.7.4-1.12.67-.3.18-.61.4-.94.67-.33.27-.7.61-1.12 1.03-.21.15-.4.39-.58.72-.18.33-.39.7-.63 1.12-.12.21-.24.54-.36.98-.12.45-.22.96-.31 1.52-.06.33-.1.69-.11 1.07-.02.39-.02.78-.02 1.16 0 .27 0 .56.02.87.01.31.04.6.07.87.06.81.16 1.5.31 2.08.15.58.31 1.08.49 1.5.15.45.32.87.51 1.28.19.4.37.77.52 1.1h-.18l.49.58c.39.84.64 1.33.76 1.48.24.42.48.82.74 1.21.25.39.43.64.51.76.33.42.63.78.9 1.07.27.3.51.55.72.76.36.39.67.72.94 1.01.27.28.45.46.54.51.33.24.61.46.85.65s.43.32.58.38c1.07.69 2.3 1.08 3.67 1.16 1.04.06 2.13-.11 3.27-.51 1.13-.4 2.18-1.04 3.13-1.9.21-.15.42-.41.63-.78.21-.37.43-.83.67-1.37.15-.33.28-.72.4-1.16.12-.45.24-.94.36-1.48h.04zm.27-17.86c.12.12.21.19.27.22l-.18-.22h-.09zM226.27 68.36h-1.99a.95.95 0 01-.29-.04c-.24-.06-.4-.12-.49-.18-.09-.06-.1-.15-.04-.27 0 .09.01.12.04.09l1.03-1.3h-.04c.09-.12.25-.35.47-.69.22-.34.5-.78.83-1.32.42-.63.97-1.6 1.66-2.91.24-.39.46-.88.67-1.48.21-.6.43-1.19.67-1.79.18-.57.37-1.23.56-1.99.19-.76.37-1.57.51-2.44.15-.87.27-1.75.36-2.66.09-.91.13-1.8.13-2.66 0-1.64-.16-2.98-.49-4.03-.33-.9-.73-1.69-1.21-2.39-.48-.7-1.02-1.23-1.61-1.59h.04c-.63-.39-1.27-.63-1.92-.72-.66-.09-1.28-.13-1.88-.13-.81 0-1.63.12-2.46.36-.84.24-1.64.72-2.42 1.43h.04c-.15.15-.28.26-.4.34-.12.07-.25.18-.38.31s-.28.31-.43.51c-.15.21-.3.49-.45.85-.12.3-.23.58-.34.83-.1.25-.2.57-.29.94-.09.37-.16.84-.2 1.39-.04.55-.07 1.26-.07 2.13v15.89c0 .96.07 1.54.2 1.77.13.22.28.35.42.38.42.15.82.22 1.21.22.12 0 .23 0 .34.02s.23.02.38.02l1.48.54-.09.54h-.58s.04.05.11.07c.07.02-.08.02-.47.02h-2.37c-2.39-.06-4.29-.06-5.71 0s-2.46.1-3.13.11c-.67.02-1.02-.02-1.05-.11-.03-.09.13-.31.49-.67-.24-.06-.29-.11-.16-.16s.32-.08.56-.11c.27-.03.61-.06 1.03-.09l.63-.13s.04 0 .02.02.1-.05.34-.2l.18-.09c.09-.03.27-.18.54-.45-.06.03-.09-.18-.09-.63v-.78c0-.22 0-.55.02-.98.01-.43.02-.99.02-1.66V41.47c-.06-.48-.1-.75-.11-.83-.02-.07-.1-.17-.25-.29l-1.92-.4c-.18-.03-.4-.04-.65-.04h-.72c-.22 0-.39-.01-.49-.04-.1-.03-.1-.09.02-.18.06-.06.02-.13-.11-.22s-.1-.13.11-.13c.24-.09.66-.09 1.25 0l6.09-.36c.15-.03.31-.04.49-.04h1.19c.25 0 .4.01.43.04h-.31c.33.03.52.12.58.27.06.15.09.45.09.89v3.04c.3-.69.72-1.31 1.25-1.88.54-.57 1.15-1.05 1.84-1.46.69-.4 1.43-.71 2.24-.92s1.64-.31 2.51-.31c1.01 0 2.03.09 3.04.27 1.01.18 1.97.45 2.87.81.9.36 1.7.8 2.42 1.32s1.3 1.13 1.75 1.81c.83 1.28 1.42 2.59 1.77 3.92.34 1.33.52 2.66.52 4.01s-.12 2.63-.36 3.94-.57 2.63-.98 3.94c-.09.24-.18.5-.27.78-.09.28-.27.7-.54 1.25s-.66 1.28-1.19 2.19c-.52.91-1.25 2.11-2.17 3.6 0 .21-.02.31-.04.31l.27.13c.69.24 1.38.44 2.08.6.7.16 1.26.28 1.68.33l-.04.45-8.24.09zM261.06 40.51l-1.66 5.42-.72-.67c-.45-1.55-1.16-2.72-2.13-3.51-.97-.79-1.95-1.35-2.93-1.68-.15-.09-.37-.15-.67-.18-.3-.03-.57-.06-.81-.09-.33-.06-.62-.1-.87-.11-.25-.01-.53 0-.83.02-.24.06-.5.13-.78.22s-.6.18-.96.27h.04c-.48.36-.96.66-1.45.9s-.89.61-1.19 1.12c-.06.18-.19.42-.4.74-.21.31-.34.68-.4 1.1-.15.96-.13 1.77.07 2.44.19.67.49 1.25.9 1.72.4.48.86.87 1.37 1.19.51.31 1 .59 1.48.83l-.13-.09c.24.15.39.26.45.33.06.08.12.11.18.11h-.04l1.21.67c.15.09.31.16.47.22s.31.12.43.18l.98.4h-.04l1.12.45c.15.06.31.12.49.18l.54.18c.57.24 1.07.46 1.5.67.43.21.74.37.92.49.63.36 1.11.74 1.46 1.14.34.4.68.87 1.01 1.41v-.04c.15.3.28.58.38.85.1.27.19.51.25.72.15.69.25 1.31.29 1.86.04.55.04 1.08-.02 1.57s-.18.97-.36 1.43c-.18.46-.42.96-.72 1.5-.6.81-1.13 1.44-1.61 1.9-.48.46-.97.82-1.48 1.07-.51.25-1.05.45-1.63.58-.58.13-1.28.28-2.08.42-.36.06-.72.11-1.07.13-.36.03-.78.07-1.25.13-.42.03-.87.03-1.34 0-.48-.03-.91-.04-1.3-.04-.81 0-1.66-.1-2.57-.29-.91-.19-1.81-.49-2.69-.89-.88-.4-1.71-.92-2.48-1.57a8.81 8.81 0 01-1.97-2.31l3.45-3.18.98 3.63c.66 1.19 1.54 2.11 2.66 2.75 1.12.64 2.29.96 3.51.96s2.43-.32 3.63-.96c1.19-.64 2.18-1.63 2.95-2.98.09-.18.16-.38.2-.6s.08-.57.11-1.05c.09-.9-.08-1.74-.51-2.53-.43-.79-1-1.51-1.7-2.17-.7-.66-1.46-1.21-2.26-1.66-.81-.45-1.52-.79-2.15-1.03-.54-.24-1.01-.45-1.43-.63-.42-.18-.75-.33-.98-.45-.54-.3-.98-.55-1.34-.76-.36-.21-.63-.39-.81-.54h.04c-.42-.3-.78-.54-1.07-.74-.3-.19-.48-.32-.54-.38h.09l-.96-.81c-.25-.21-.41-.39-.47-.54h.04c-.54-.75-.85-1.28-.94-1.61h.04c-.33-.75-.51-1.24-.54-1.48-.03-.48-.03-.98 0-1.52l.13-.67c0-.06.01-.15.04-.27.03-.12.07-.25.13-.4.15-.36.31-.69.47-.99.16-.3.34-.6.52-.9.06-.09.36-.4.9-.94.75-.63 1.6-1.15 2.55-1.57.24-.12.55-.23.94-.34.39-.1.81-.2 1.25-.29.6-.15 1.18-.24 1.75-.27.24-.03.51-.05.81-.07.3-.01.6 0 .9.02.6 0 1.21.04 1.84.13l.67.13c.24.03.44.05.6.07.16.02.5.1 1.01.25.75.18 1.32.4 1.72.67s.77.5 1.1.69c.33.19.7.29 1.12.29s1.01-.19 1.79-.58l.85.18z"/></g></svg>