<svg id="Layer_2" data-name="Layer 2" xmlns="http://www.w3.org/2000/svg" viewBox="0 0 336.19 107.26"><defs><style>.cls-2,.cls-3{fill:#845e33;stroke-width:0}.cls-3{fill:#442015}</style></defs><g id="Layer_1-2" data-name="Layer 1"><path class="cls-2" d="M1.47 1.47h333.26v104.32H1.47z"/><path class="cls-2" transform="rotate(90 168.1 53.63)" d="M126.29-102.65h83.61V209.9h-83.61z"/><path fill="#714525" stroke="#442015" stroke-linejoin="round" stroke-width="2.93" d="M1.47 1.47h333.26v104.32H1.47z"/><path transform="rotate(90 168.1 53.63)" fill="#dfb980" stroke-width="0" d="M126.29-102.65h83.61V209.9h-83.61z"/><path class="cls-3" d="M120.41 58.96c-.15-.51-.29-.99-.43-1.46-.13-.46-.23-.93-.29-1.41-.12-1.07-.16-2.16-.13-3.27.03-.51.08-1.01.16-1.52.07-.51.2-1.04.38-1.61.12-.45.28-.92.49-1.43.21-.51.46-1.06.76-1.66h-.04c.18-.36.41-.74.69-1.14.28-.4.66-.87 1.14-1.41.27-.33.6-.66.98-1.01.39-.34.79-.68 1.21-1.01.24-.18.49-.37.76-.56s.63-.41 1.07-.65c.48-.24 1.01-.48 1.61-.72.6-.24 1.25-.48 1.97-.72.48-.15.98-.28 1.52-.38.54-.1 1.12-.19 1.75-.25.27-.03.55-.05.85-.07.3-.01.63-.02.98-.02.3 0 .6 0 .92.02.31.02.63.04.96.07.78.12 1.46.26 2.06.43.6.16 1.13.32 1.61.47 1.43.6 2.53 1.17 3.29 1.72.76.55 1.26 1.01 1.5 1.37l-3.36 3.49c-.12-.3-.27-.65-.45-1.05s-.39-.81-.63-1.21c-.24-.4-.53-.8-.87-1.19-.34-.39-.72-.72-1.14-.99-.48-.3-.95-.56-1.41-.78-.46-.22-.98-.4-1.54-.51-.57-.12-1.19-.19-1.88-.22s-1.49 0-2.42.09c-.6.06-1.13.24-1.61.54-.48.3-.9.66-1.28 1.07-.37.42-.7.87-.98 1.34-.28.48-.53.94-.74 1.39-.21.33-.38.68-.52 1.05-.13.37-.28.74-.43 1.1-.12.3-.23.68-.34 1.14-.1.46-.2.94-.29 1.43-.09.49-.15.94-.18 1.34-.03.4-.02.69.04.87v.31l9.58-.22c.42 0 .75-.13 1.01-.4.25-.27.45-.58.6-.94.15-.36.27-.73.36-1.12.09-.39.21-.7.36-.94h.63l.09 8.28h-.49l-1.25-2.91c-.09 0-.24 0-.45-.02-.21-.01-.45-.03-.72-.04-.27-.01-.54-.02-.81-.02h-.67c-1.73-.03-3.07-.04-4.01-.02s-1.66.04-2.17.07c-.51.03-.89.05-1.14.07-.25.01-.56.02-.92.02l.13 1.52c.09.72.18 1.32.27 1.81.09.49.18.93.27 1.32.15.6.28 1.11.38 1.54.1.43.23.81.38 1.14.15.42.31.78.47 1.08.16.3.34.57.51.81h-.04l.31.49h-.04c.39.51.84 1.01 1.37 1.52.52.51 1.07.96 1.66 1.37.58.4 1.19.7 1.84.89.64.2 1.29.23 1.95.11 1.85-.33 3.48-1.07 4.9-2.24 1.42-1.16 2.42-2.79 3.02-4.88l3.18 3.36c-.54.78-1.1 1.45-1.7 2.01-.6.57-1.3 1.04-2.1 1.43-.81.39-1.73.7-2.78.94-1.04.24-2.28.42-3.72.54-.48.03-.94.04-1.39.04s-.88-.03-1.3-.09c-.54-.03-1.04-.09-1.5-.18-.46-.09-.93-.21-1.41-.36-.42-.15-.86-.31-1.32-.49-.46-.18-.89-.34-1.28-.49l-.36-.13h.04c-.6-.27-1.06-.51-1.39-.72-.33-.21-.61-.39-.85-.54-.42-.33-.81-.65-1.16-.96-.36-.31-.67-.62-.94-.92-.96-.98-1.58-1.75-1.88-2.28h.04c-.72-1.13-1.16-1.95-1.34-2.46z"/><path class="cls-3" d="M180.08 67.15l.58.85a.96.96 0 01-.25.07c-.1.01-.29.05-.56.11h-3.04c-.33-.03-.69-.04-1.07-.02-.39.02-.79.02-1.21.02h-1.25c-.57.03-1.19.05-1.88.07-.69.02-1.3.02-1.84.02-.51.03-1.04.04-1.61.04h-2.91c.03 0 .03-.01 0-.04a.625.625 0 00-.2-.13c-.07-.03-.1-.07-.07-.13.03 0 .04-.04.02-.11s0-.16.02-.25c.03-.09.07-.18.13-.27.06-.09.16-.15.31-.18h.54c.24 0 .51-.01.81-.04h.85c.33 0 .61-.01.85-.04.21 0 .45-.09.72-.27-.15.06-.03-.12.36-.54.06-.06.09-.3.09-.72 0-.12-.02-.22-.04-.29-.03-.07-.13-.24-.29-.49-.16-.25-.43-.63-.78-1.14-.36-.51-.85-1.24-1.48-2.19l-4.48-6.31-8.01 9.85h.13c-.12.33-.13.64-.04.94.03.15.06.26.09.34.03.08.06.14.09.2.03.09.04.15.04.18h-.18c.39.18.61.27.67.27.15.03.26.04.34.04h.2l2.91.67-.04.58h-2.42c-.18 0-.37 0-.56-.02-.19-.01-.41-.02-.65-.02l-2.28.09-2.28.13h-2.51s-.1 0-.2-.02c-.1-.01-.17-.02-.2-.02a4.7 4.7 0 00-.63-.13c-.21-.03-.31-.06-.31-.09.12-.06.25-.24.4-.54.15-.3.3-.45.45-.45h.72c.09.03.28.04.58.04.15 0 .32 0 .51-.02.19-.01.44-.04.74-.07l.4-.09h-.27l.54-.18c.15-.06.34-.17.58-.34.24-.16.52-.38.85-.65-.06.03.12-.22.54-.76s.96-1.22 1.63-2.04c.67-.82 1.4-1.74 2.19-2.75s1.55-1.98 2.28-2.91c.73-.92 1.37-1.75 1.9-2.46.54-.72.87-1.21.98-1.48-1.04-1.55-2.08-3.1-3.11-4.66-1.03-1.55-1.9-2.85-2.62-3.89-.75-1.07-1.37-1.9-1.86-2.48-.49-.58-.89-1.01-1.19-1.28-.3-.27-.52-.43-.65-.49s-.22-.1-.25-.13h.22l-.76-.49h.09l-1.03-.4h.04c-.42-.18-.7-.27-.85-.27-.24-.03-.51-.04-.83-.04h-.74a2.53 2.53 0 00-.38-.04h-.2c-.21-.27-.31-.45-.29-.54.01-.09.09-.13.22-.13s.28.02.45.07c.16.04.31.07.43.07h.45c.12 0 .25 0 .4.02.15.02.3.02.45.02.24.03.49.04.76.04h6.63c.24 0 .39.02.45.04h-.13c.33.06.57.11.74.16s.28.07.34.07h-.13c.12.12.23.21.34.27.1.06.19.11.25.13l.18.31c.03.21.1.4.22.58.12.18.36.52.72 1.03.66.98 1.22 1.81 1.7 2.48.48.67.87 1.23 1.19 1.68.31.45.57.81.76 1.07.19.27.35.49.47.67.18.27.32.49.43.65.1.17.21.33.31.49.1.16.22.34.36.54s.29.44.47.74l4.39-6.18.31-.45h-.04s.05-.07.07-.11c.01-.04.04-.2.07-.47.03-.21.06-.49.09-.83s.02-.59-.04-.74h.04c-.15-.24-.42-.44-.81-.6-.39-.16-.66-.28-.81-.34-.09-.06-.27-.12-.54-.18a9.18 9.18 0 00-1.52-.13c-.15 0-.29 0-.43-.02-.13-.01-.28-.02-.43-.02h-1.39c-.6-.42-.87-.66-.83-.72.04-.06.23-.09.56-.09h3.89c.3 0 .57 0 .83-.02.25-.01.5-.02.74-.02h4.57c.3.09.46.21.49.36s-.06.38-.27.69c-.21.31-.54.75-.98 1.3-.45.55-1 1.29-1.66 2.22-.15.24-.31.47-.49.69-.18.22-.36.47-.54.74l-4.48 6.18h.04l3.67 5.64c.69 1.04 1.32 2.04 1.9 2.98.58.94 1.11 1.75 1.59 2.44.78 1.16 1.38 2.04 1.81 2.64.43.6.75 1.01.96 1.25.21.24.34.36.38.36h.02l.72.45c.09.06.2.11.34.13.13.03.23.04.29.04.03.03.06.04.09.04.06 0 .13 0 .22.02s.16.02.22.02h.45c.63 0 1.01.04 1.16.13h-.22zm-33.53.98v-.04c.18.06.25.13.22.22s-.1.03-.22-.18zm12.22-28.74s-.07 0-.13-.02c-.06-.01-.09-.04-.09-.07l.22.09zm.04.09l.04.04a.485.485 0 01-.09-.13l.04.09zM185.59 65.31v-.42c0-.19 0-.47.02-.83.01-.36.02-.83.02-1.43V41.37c-.06-.45-.25-.79-.58-1.03-.33-.24-.7-.42-1.12-.54-.42-.12-.84-.19-1.28-.2-.43-.01-.8-.02-1.1-.02-.54-.06-.89-.1-1.05-.11-.16-.01-.26 0-.29.02.06-.06.19-.19.4-.38.21-.19.42-.29.63-.29h.18c.06 0 .12 0 .18.02s.16.02.31.02h.76c.33 0 .7-.01 1.12-.04h1.25c.24 0 .49 0 .74-.02.26-.01.5-.02.74-.02h-.05c.69 0 1.22 0 1.58-.02.36-.01.63-.02.81-.02h.45c.69-.12 1.11-.1 1.26.04.03.03.06.1.09.2.03.11.06.31.09.63.03.31.05.78.07 1.39.02.61.03 1.43.05 2.46.01 1.03.03 2.32.04 3.87.02 1.55.02 3.42.02 5.6v14.28l2.55.49.4.58h-2.37c-.18.03-.58.05-1.19.07-.62.01-1.32.03-2.1.04-.78.02-1.57.02-2.37 0-.8-.01-1.47-.04-2.02-.09s-.9-.11-1.05-.2c-.15-.09.04-.21.58-.36l1.07-.18s.06.04.09.04h.22l.31-.31s.07-.08.11-.16c.04-.07.14-.28.29-.6.06-.18.09-.49.09-.94v-.27zM216.92 42.8c0-.09-.1-.28-.31-.56a57.8 57.8 0 00-.69-.9c-.25-.31-.59-.72-1.01-1.23-.06-.06-.19-.13-.38-.2s-.28-.13-.25-.16h-5.69c.3.06.45.18.45.36v17.48c0 1.87 0 3.36.02 4.48.01 1.12.02 1.99.02 2.6v1.72h-.04l.04.49c.12.12.22.23.29.34.07.1.1.14.07.11.15.09.32.15.51.18s.41.07.65.13l2.55.72-.09.4c-.06 0-.36.04-.9.13l-8.46-.13c-.24 0-.46 0-.67.02-.21.02-.4.02-.58.02h-.6c-.19 0-.37.02-.51.04-.18 0-.47 0-.87.02s-.65.02-.74.02h.13l-.58-.63 2.37-.63h-.04c.15-.03.31-.06.47-.09.16-.03.38-.12.65-.27.09-.03.18-.19.27-.49.09-.3.13-1.01.13-2.15V40.13c0-.12.18-.21.54-.27l-7.48.18-1.93 2.6h-.22c.03 0 .02-.01-.04-.04s-.12-.07-.18-.11a.192.192 0 01-.09-.16c0-.03.08-.24.25-.63.16-.39.34-.82.54-1.3.19-.48.39-.92.58-1.32.19-.4.32-.63.38-.69l20.95.09 1.48 4.16-.98.13zm-3.67 25.96h-.18c.12.06.18.06.18 0z"/></g></svg>