<svg id="Layer_2" data-name="Layer 2" xmlns="http://www.w3.org/2000/svg" xmlns:xlink="http://www.w3.org/1999/xlink" viewBox="0 0 1947.73 205.71"><defs><symbol id="FURMANKA_UI" data-name="FURMANKA UI" viewBox="0 0 1947.73 205.71"><path class="cls-1" d="M60.64 11.68H393.9V154.2H60.64z"/><path stroke-width="0" fill="#442015" d="M49.37 53.15h333.26v31.28H49.37z"/><rect x="49.37" y="83.36" width="333.26" height="81.75" rx="4.7" ry="4.7" style="mix-blend-mode:multiply" stroke-width="0" fill="#442015" opacity=".35"/><path class="cls-1" d="M60.64 1.47H393.9v142.52H60.64z"/><path fill="#dfb980" stroke-width="0" d="M100.53 122.12V23.33H354v98.79H100.53z"/><path stroke-miterlimit="10" stroke="#c39c6b" fill="#dfb97f" stroke-width="1.95" d="M112.28 112.45V33.01h229.97v79.44H112.28z"/><path fill="#f3e8d3" stroke-width="1.52" stroke-miterlimit="10" stroke="#c39c6b" d="M128.65 100.77V44.69H326.9v56.08H128.65z"/><path d="M142 52.1c-1.25-2.85 3.59-5.21 2.26-1.47 1.32-1.73 3.95-4.09 4.35-6.03-1.2-.52-1.13-2 .2-2.2 4.58-3.67 10.56-5.26 16.23-5.39 20.76-2.45 31.68 17.57 19.79 32.68 4.35-1.16.82 17.72-6.55 13.41-1.59 2.87 1.39 9.18-3.4 8.97-2.57.79-1.06-2.71-2.56-2.91-2.02-.13-.47 2.44-1.84 2.99-2.83 1.07-1.79-2.45-3.38-2.8-2.06-.35-.49 1.96-1.57 2.69-3.56 1.89-2.69-3.09-5.58-4.02 2.7 7.43-7.48 3.25-1.14.22 1.07-1.74-3.11 1.06-3.52-.59-.85.37-.86.69-.63 1.49 1.25 1.81-1.41 4.52-2.23 2.27-.1-1.14-.12-2.62 1.52-1.96-3.72-6.69-10.87-11.68-9.96-20.78-.43-2.8.26-7.64-1.77-10.33-.89-.66 2.17-6.22-.74-5.06-.71-1.43 1.83-.9 1.47-2.25-1.06-.27-.61.74-.97 1.05zm16.37 23.02c2.29.56-1.08 1.47.13 2.82 1.41 5.73 2.79-.79 7.04 2.2 3.23-1.22-.67-6.54-.31-9.62-.66-1.62-2.76-.33-4.39-1.12.38 1.93-.76 4.34-2.47 5.71zm-10.39-11.8c3.22 3.28-2.37 5.2 6.72 4.55 5.88-.38 2.03-8.31-2.55-6.88 2.08-2.26-2.98.04-3.07 1.18.14.75-.17.99-1.1 1.14zm18.35 1.5c-.68-.98-2.11.49-.61.7 2.17-.55 1.78 1.13 3.09 2.16 1.77-3.2 7.72 2.9 7.71-3.36.45-4.41-7.11-3.26-8.71-2.13 1.55 1.23-.53 1.95-1.48 2.65zm-21.59-2.26c.79-.15-.16-.99-.28-1.51-.74.19.17 1 .28 1.51zm18.34 26.32c.41-.84-.45-1.24-1.2-.48.47.19.84.33 1.2.48z" stroke-width="0" fill="#714525"/></symbol><style>.cls-1{stroke-linejoin:round;stroke-width:2.93px;stroke:#442015;fill:#714525}</style></defs><use width="1947.73" height="205.71" xlink:href="#FURMANKA_UI" id="Layer_1-2" data-name="Layer 1"/></svg>